<svg xmlns="http://www.w3.org/2000/svg" viewBox="0 0 64 64">
<linearGradient id="rank_b_col1" gradientUnits="userSpaceOnUse" x1="32" y1="8.0801" x2="32" y2="55.9199">
	<stop  offset="0.00" style="stop-color:#5BAF23"/>
	<stop  offset="0.40" style="stop-color:#BCFF9E"/>
	<stop  offset="0.60" style="stop-color:#BCFF9E"/>
	<stop  offset="1.00" style="stop-color:#62B42C"/>
</linearGradient>
<radialGradient id="rank_b_col2" cx="32" cy="31.999" r="28.29" gradientTransform="matrix(0.8132 -0.8132 0.7071 0.7071 -16.6493 35.3947)" gradientUnits="userSpaceOnUse">
	<stop  offset="0.73" style="stop-color:#BCFF9E;stop-opacity:0"/>
	<stop  offset="0.78" style="stop-color:#BCFF9E"/>
	<stop  offset="0.80" style="stop-color:#BCFF9E"/>
	<stop  offset="0.85" style="stop-color:#BCFF9E;stop-opacity:0"/>
</radialGradient>
<linearGradient id="rank_b_col3" gradientUnits="userSpaceOnUse" x1="29.6353" y1="13.3086" x2="29.6353" y2="45">
	<stop  offset="0.00" style="stop-color:#3A8D1B"/>
	<stop  offset="0.40" style="stop-color:#499C26"/>
	<stop  offset="0.60" style="stop-color:#499C26"/>
	<stop  offset="1.00" style="stop-color:#105400"/>
</linearGradient>
<path fill="url(#rank_b_col1)" d="M55.92,32c-1.856,13.211-14.071,23.92-27.282,23.92C15.427,55.92,6.224,45.211,8.08,32
	S22.151,8.08,35.361,8.08C48.572,8.08,57.777,18.789,55.92,32z"/>
<path fill="url(#rank_b_col2)" d="M55.005,8.995c11.048,11.048,9.704,30.305-3.001,43.009C39.299,64.709,20.043,66.053,8.995,55.005
	s-9.704-30.304,3-43.01C24.701-0.709,43.957-2.052,55.005,8.995z"/>
<path fill="url(#rank_b_col3)" d="M26.916,13.309h6.563c0.968,0,1.965,0.025,2.99,0.074c1.025,0.05,2.013,0.155,2.964,0.315
	c0.951,0.161,1.835,0.398,2.653,0.715c0.818,0.314,1.5,0.739,2.047,1.271c0.546,0.532,0.932,1.19,1.158,1.976
	c0.226,0.786,0.221,1.729-0.013,2.83l-0.327,1.54c-0.179,0.842-0.506,1.614-0.981,2.319s-1.038,1.326-1.687,1.865
	c-0.649,0.537-1.353,0.982-2.113,1.336c-0.76,0.352-1.512,0.591-2.255,0.714l-0.032,0.148c2.06,0.285,3.5,1.03,4.322,2.235
	c0.82,1.207,1.031,2.75,0.631,4.63l-0.343,1.614c-0.245,1.15-0.628,2.149-1.15,2.996c-0.523,0.848-1.157,1.571-1.902,2.172
	c-0.746,0.6-1.584,1.092-2.518,1.475c-0.934,0.384-1.932,0.684-2.997,0.9c-1.064,0.216-2.181,0.364-3.351,0.445
	C29.405,44.96,28.211,45,26.992,45h-6.813L26.916,13.309z M31.647,26.872c0.868,0,1.678-0.077,2.429-0.232
	c0.751-0.154,1.416-0.396,1.995-0.723c0.579-0.328,1.063-0.755,1.45-1.281c0.387-0.525,0.66-1.159,0.818-1.901l0.276-1.299
	c0.158-0.742,0.196-1.397,0.117-1.967c-0.079-0.568-0.307-1.051-0.682-1.447c-0.375-0.396-0.913-0.696-1.612-0.899
	c-0.7-0.205-1.584-0.307-2.653-0.307h-1.252l-2.138,10.057H31.647z M29.105,41.66c0.868,0,1.675-0.083,2.42-0.251
	c0.745-0.166,1.41-0.426,1.994-0.779c0.584-0.352,1.072-0.8,1.463-1.345c0.391-0.544,0.666-1.188,0.823-1.93l0.524-2.468
	c0.158-0.742,0.198-1.4,0.12-1.977c-0.079-0.574-0.306-1.057-0.681-1.447c-0.377-0.389-0.911-0.686-1.602-0.891
	c-0.692-0.203-1.572-0.306-2.641-0.306h-1.854L27.251,41.66H29.105z"/>
</svg>
