<svg xmlns="http://www.w3.org/2000/svg" viewBox="0 0 64 64">
<linearGradient id="rank_c_col1" gradientUnits="userSpaceOnUse" x1="32" y1="8.0801" x2="32" y2="55.9199">
	<stop  offset="0.00" style="stop-color:#6091B9"/>
	<stop  offset="0.40" style="stop-color:#AFEFF9"/>
	<stop  offset="0.60" style="stop-color:#AFEFF9"/>
	<stop  offset="1.00" style="stop-color:#6297B7"/>
</linearGradient>
<radialGradient id="rank_c_col2" cx="32" cy="31.999" r="28.29" gradientTransform="matrix(0.8132 -0.8132 0.7071 0.7071 -16.6493 35.3947)" gradientUnits="userSpaceOnUse">
	<stop  offset="0.73" style="stop-color:#AFEFF9;stop-opacity:0"/>
	<stop  offset="0.78" style="stop-color:#AFEFF9"/>
	<stop  offset="0.80" style="stop-color:#AFEFF9"/>
	<stop  offset="0.85" style="stop-color:#AFEFF9;stop-opacity:0"/>
</radialGradient>
<linearGradient id="rank_c_col3" gradientUnits="userSpaceOnUse" x1="29.6353" y1="13.3086" x2="29.6353" y2="45">
	<stop  offset="0.00" style="stop-color:#1D5167"/>
	<stop  offset="0.40" style="stop-color:#3E8599"/>
	<stop  offset="0.60" style="stop-color:#3E8599"/>
	<stop  offset="1.00" style="stop-color:#064661"/>
</linearGradient>
<path fill="url(#rank_c_col1)" d="M55.92,32c-1.856,13.211-14.071,23.92-27.282,23.92C15.427,55.92,6.224,45.211,8.08,32
	S22.151,8.08,35.361,8.08C48.572,8.08,57.777,18.789,55.92,32z"/>
<path fill="url(#rank_c_col2)" d="M55.005,8.995c11.048,11.048,9.704,30.305-3.001,43.009C39.299,64.709,20.043,66.053,8.995,55.005
	s-9.704-30.304,3-43.01C24.701-0.709,43.957-2.052,55.005,8.995z"/>
<path fill="url(#rank_c_col3)" d="M30.729,45.278c-0.668,0-1.382-0.04-2.141-0.121c-0.76-0.08-1.5-0.25-2.222-0.51c-0.721-0.26-1.386-0.628-1.995-1.104
	c-0.609-0.477-1.101-1.104-1.478-1.884c-0.377-0.779-0.607-1.741-0.689-2.886c-0.083-1.144,0.044-2.507,0.381-4.091l2.386-11.226
	c0.339-1.596,0.795-2.959,1.371-4.092c0.574-1.131,1.219-2.084,1.935-2.857c0.715-0.772,1.48-1.388,2.295-1.846
	c0.815-0.457,1.633-0.807,2.453-1.049c0.819-0.24,1.616-0.398,2.392-0.473s1.489-0.111,2.141-0.111c1.703,0,3.089,0.176,4.159,0.529
	c1.068,0.352,1.884,0.834,2.448,1.447c0.562,0.611,0.903,1.326,1.022,2.143c0.118,0.816,0.081,1.683-0.114,2.598
	c-0.145,0.681-0.325,1.309-0.538,1.883c-0.214,0.576-0.487,1.21-0.818,1.902h-5.26l0.343-1.614c0.371-1.744,0.389-3.049,0.056-3.915
	c-0.333-0.865-1.001-1.299-2.003-1.299c-0.601,0-1.146,0.087-1.633,0.26c-0.488,0.174-0.926,0.467-1.315,0.881
	c-0.389,0.415-0.735,0.963-1.038,1.643c-0.304,0.681-0.563,1.528-0.778,2.542l-3.077,14.473c-0.21,0.99-0.322,1.813-0.336,2.468
	c-0.014,0.656,0.079,1.182,0.279,1.577c0.199,0.396,0.511,0.677,0.935,0.845c0.424,0.166,0.961,0.25,1.612,0.25
	c0.417,0,0.833-0.071,1.248-0.213c0.414-0.143,0.799-0.365,1.156-0.668c0.357-0.304,0.673-0.688,0.946-1.15
	c0.274-0.465,0.478-1.012,0.612-1.643l0.659-3.099h5.937l-0.623,2.932c-0.542,2.549-1.727,4.429-3.553,5.641
	C36.055,44.654,33.67,45.266,30.729,45.278z"/>
</svg>
