<svg xmlns="http://www.w3.org/2000/svg" viewBox="0 0 64 64">
<linearGradient id="rank_d_col1" gradientUnits="userSpaceOnUse" x1="32" y1="8.0801" x2="32" y2="55.9199">
	<stop  offset="0.00" style="stop-color:#7382C5"/>
	<stop  offset="0.40" style="stop-color:#D1DFFA"/>
	<stop  offset="0.60" style="stop-color:#D1DFFA"/>
	<stop  offset="1.00" style="stop-color:#758ED0"/>
</linearGradient>
<radialGradient id="rank_d_col2" cx="32" cy="31.999" r="28.29" gradientTransform="matrix(0.8132 -0.8132 0.7071 0.7071 -16.6493 35.3947)" gradientUnits="userSpaceOnUse">
	<stop  offset="0.73" style="stop-color:#D1DFFA;stop-opacity:0"/>
	<stop  offset="0.78" style="stop-color:#D1DFFA"/>
	<stop  offset="0.80" style="stop-color:#D1DFFA"/>
	<stop  offset="0.85" style="stop-color:#D1DFFA;stop-opacity:0"/>
</radialGradient>
<linearGradient id="rank_d_col3" gradientUnits="userSpaceOnUse" x1="29.6353" y1="13.3086" x2="29.6353" y2="45">
	<stop  offset="0.00" style="stop-color:#3E4F83"/>
	<stop  offset="0.40" style="stop-color:#5173B2"/>
	<stop  offset="0.60" style="stop-color:#5173B2"/>
	<stop  offset="1.00" style="stop-color:#1D3B71"/>
</linearGradient>
<path fill="url(#rank_d_col1)" d="M55.92,32c-1.856,13.211-14.071,23.92-27.282,23.92C15.427,55.92,6.224,45.211,8.08,32
	S22.151,8.08,35.361,8.08C48.572,8.08,57.777,18.789,55.92,32z"/>
<path fill="url(#rank_d_col2)" d="M55.005,8.995c11.048,11.048,9.704,30.305-3.001,43.009C39.299,64.709,20.043,66.053,8.995,55.005
	s-9.704-30.304,3-43.01C24.701-0.709,43.957-2.052,55.005,8.995z"/>
<path fill="url(#rank_d_col3)" d="M26.74,13.309h6.738c1.019,0,2.07,0.021,3.155,0.065c1.085,0.043,2.125,0.176,3.122,0.398s1.909,0.566,2.737,1.029
	c0.828,0.465,1.504,1.113,2.028,1.949c0.524,0.834,0.855,1.886,0.995,3.154c0.14,1.268,0.015,2.817-0.374,4.647l-1.956,9.203
	c-0.389,1.831-0.924,3.384-1.604,4.657c-0.68,1.274-1.458,2.326-2.336,3.154c-0.878,0.829-1.829,1.475-2.854,1.939
	c-1.025,0.463-2.084,0.807-3.175,1.029s-2.188,0.355-3.291,0.398C28.821,44.979,27.76,45,26.742,45h-6.738L26.74,13.309z
	 M28.858,41.642c1.169,0,2.157-0.111,2.964-0.334s1.492-0.615,2.054-1.178c0.562-0.563,1.03-1.33,1.403-2.301
	c0.374-0.972,0.718-2.199,1.034-3.684l2.09-9.834c0.315-1.484,0.493-2.712,0.532-3.684c0.039-0.971-0.103-1.737-0.425-2.301
	c-0.323-0.563-0.841-0.955-1.553-1.178s-1.653-0.334-2.822-0.334h-1.653l-5.277,24.826H28.858z"/>
</svg>
