<svg xmlns="http://www.w3.org/2000/svg" viewBox="0 0 64 64">
<linearGradient id="rank_g_col1" gradientUnits="userSpaceOnUse" x1="32" y1="8.0801" x2="32" y2="55.9199">
	<stop  offset="0.00" style="stop-color:#767676"/>
	<stop  offset="0.40" style="stop-color:#959595"/>
	<stop  offset="0.60" style="stop-color:#959595"/>
	<stop  offset="1.00" style="stop-color:#757575"/>
</linearGradient>
<radialGradient id="rank_g_col2" cx="32" cy="31.999" r="28.29" gradientTransform="matrix(0.8132 -0.8132 0.7071 0.7071 -16.6493 35.3947)" gradientUnits="userSpaceOnUse">
	<stop  offset="0.73" style="stop-color:#959595;stop-opacity:0"/>
	<stop  offset="0.78" style="stop-color:#959595"/>
	<stop  offset="0.80" style="stop-color:#959595"/>
	<stop  offset="0.85" style="stop-color:#959595;stop-opacity:0"/>
</radialGradient>
<linearGradient id="rank_g_col3" gradientUnits="userSpaceOnUse" x1="29.6353" y1="13.3086" x2="29.6353" y2="45">
	<stop  offset="0.00" style="stop-color:#4D4D4D"/>
	<stop  offset="0.40" style="stop-color:#363636"/>
	<stop  offset="0.60" style="stop-color:#363636"/>
	<stop  offset="1.00" style="stop-color:#222222"/>
</linearGradient>
<path fill="url(#rank_g_col1)" d="M55.92,32c-1.856,13.211-14.071,23.92-27.282,23.92C15.427,55.92,6.224,45.211,8.08,32
	S22.151,8.08,35.361,8.08C48.572,8.08,57.777,18.789,55.92,32z"/>
<path fill="url(#rank_g_col2)" d="M55.005,8.995c11.048,11.048,9.704,30.305-3.001,43.009C39.299,64.709,20.043,66.053,8.995,55.005
	s-9.704-30.304,3-43.01C24.701-0.709,43.957-2.052,55.005,8.995z"/>
<path fill="url(#rank_g_col3)" d="M28.758,45.297c-0.501,0-1.077-0.04-1.728-0.12c-0.651-0.081-1.304-0.251-1.958-0.511c-0.655-0.26-1.273-0.628-1.856-1.104
	c-0.584-0.476-1.063-1.106-1.439-1.893c-0.376-0.785-0.609-1.75-0.7-2.895c-0.091-1.144,0.032-2.507,0.369-4.091l2.386-11.226
	c0.339-1.596,0.804-2.959,1.396-4.092c0.591-1.131,1.261-2.084,2.01-2.857c0.749-0.772,1.551-1.388,2.408-1.846
	c0.857-0.457,1.72-0.807,2.59-1.049c0.869-0.24,1.713-0.398,2.53-0.473c0.818-0.074,1.568-0.111,2.253-0.111
	c1.737,0,3.165,0.176,4.284,0.529c1.119,0.352,1.985,0.834,2.598,1.447c0.612,0.611,0.995,1.326,1.147,2.143
	c0.152,0.816,0.131,1.683-0.063,2.598c-0.145,0.681-0.333,1.309-0.563,1.883c-0.231,0.576-0.512,1.21-0.843,1.902h-5.185l0.32-1.503
	c0.739-3.476-0.153-5.214-2.674-5.214c-0.685,0-1.296,0.087-1.833,0.26c-0.538,0.174-1.018,0.467-1.439,0.881
	c-0.423,0.415-0.785,0.963-1.088,1.643c-0.304,0.681-0.563,1.528-0.778,2.542l-3.053,14.361c-0.21,0.99-0.306,1.813-0.287,2.468
	c0.019,0.656,0.15,1.182,0.392,1.577c0.241,0.396,0.591,0.677,1.048,0.845c0.457,0.166,1.028,0.25,1.712,0.25
	c0.718,0,1.365-0.139,1.943-0.418c0.576-0.277,1.083-0.658,1.52-1.141c0.437-0.482,0.804-1.051,1.102-1.707
	c0.298-0.655,0.528-1.366,0.691-2.134l0.88-4.138h-3.332l0.67-3.154h9.644L40.418,45H36.11l-0.063-3.006
	c-1.068,1.176-2.188,2.02-3.356,2.532C31.522,45.04,30.211,45.297,28.758,45.297z"/>
</svg>
