<svg xmlns="http://www.w3.org/2000/svg" viewBox="0 0 64 64">
<polygon fill="#000000" points="28.5,30.5 28.526,30.467 21,22 20.968,22.026 "/>
<polygon fill="#000000" points="54.255,20.802 28.555,52.432 29,53 55,21 "/>
<polygon fill="#174C25" points="28,52 10,29 20,21 28,30 39,16 54,20 "/>
<polygon fill="#01620B" points="28,49 12,29 20,23 28,33 40,18 51,21 "/>
<polygon fill="#0BA00D" points="28.25,46.515 14,29 19,25 28,35 40,20 48,22 "/>
<polygon fill="#0BFF00" points="28,44 16,29 19,27 28,37 40,22 45,23 "/>
</svg>
