<svg xmlns="http://www.w3.org/2000/svg" viewBox="0 0 64 64">
  <path fill="#E71F19" d="M33.475 47.068l5.554-5.552-6.619-6.621zM40.896 26.41l6.619 6.619 5.554-5.553z"/>
  <path fill="#E71F19" d="M32 2C15.432 2 2 15.431 2 32c0 16.568 13.433 30 30 30 16.568 0 30-13.432 30-30C62 15.431 48.568 2 32 2zm-4 46h-6v6h-6v-6h-6v-6h6v-6h6v6h6v6zm27.293-.121l-1.415 1.414-1.415-1.414-3.534 3.535a2 2 0 01-2.828 0l-4.243-4.242a2 2 0 010-2.828l-1.414-1.414L33.373 50a.999.999 0 01-1.414 0 .975.975 0 01-.275-.621l-.015.001-1.459-16.687-2.493-2.492a2 2 0 01-2.828 0l-2.829-2.829a2 2 0 010-2.828h-5.656l-4.243 4.243-1.414-1.415L33.373 4.745l1.414 1.414-4.243 4.243v5.656a2 2 0 012.829 0l2.829 2.829a2 2 0 010 2.828l2.494 2.494 16.685 1.46-.001.012a.992.992 0 01.621.276.997.997 0 010 1.414l-7.07 7.07 1.414 1.414a2.002 2.002 0 012.827 0l4.243 4.244a2 2 0 010 2.828l-3.536 3.535 1.414 1.417z"/>
</svg>
