<svg
  xmlns="http://www.w3.org/2000/svg" viewBox="0 0 64 64">
  <g fill="#E71F19">
    <path d="M33.475 47.069l5.554-5.554-6.619-6.62zM40.896 26.41l6.619 6.619 5.554-5.553z"/>
    <path d="M32 2C15.432 2 2 15.431 2 32s13.432 30 30 30 30-13.431 30-30S48.568 2 32 2zm-4 46h-6v6h-6v-6h-6v-6h6v-6h6v6h6v6zm27.293-.121l-1.415 1.414-1.415-1.414-3.535 3.535a2 2 0 01-2.828 0l-4.243-4.242a2 2 0 010-2.829l-1.414-1.414L33.373 50a.999.999 0 01-1.414 0 .981.981 0 01-.276-.621l-.014.001-1.459-16.686-2.493-2.493a2 2 0 01-2.829 0l-2.829-2.829a2 2 0 010-2.828h-5.656l-4.243 4.243-1.414-1.415L33.373 4.745l1.414 1.414-4.243 4.243v5.656a2 2 0 012.829 0l2.829 2.829a2 2 0 010 2.828l2.494 2.494 16.685 1.46-.001.012a.995.995 0 01.621.276.999.999 0 010 1.414l-7.071 7.071 1.414 1.414a2.001 2.001 0 012.828 0l4.243 4.243a2 2 0 010 2.828l-3.536 3.536 1.414 1.416z"/>
  </g>
</svg>
