<svg xmlns="http://www.w3.org/2000/svg" viewBox="0 0 64 64">
  <g fill="#00F">
    <path d="M1 2.5V3h8l-.5-.5zM36.5 1v1.5h-8l-4 4v3H13v.5h12V7l4-4h8V1zM26.14 43.359c.226.324.36.716.36 1.141v6a2 2 0 01-2 2h-12c-.424 0-.816-.134-1.14-.359.361.518.96.859 1.64.859h12a2 2 0 002-2v-6c0-.68-.341-1.278-.86-1.641zM26.14 11.359c.226.324.36.716.36 1.141v4a2 2 0 01-2 2h-12c-.424 0-.816-.134-1.14-.359.361.518.96.859 1.64.859h12a2 2 0 002-2v-4c0-.68-.341-1.278-.86-1.641zM19.5 54v.5H18v.5h2v-1zM24.5 34.5h.5v-8.766l-.5-.595zM5.564 34.5l6.936-8.267v-1.095L4.645 34.5z"/>
    <path d="M35.756 35.365l.01-.008L25 22.527V20h-.5v2.027l10.766 12.83-.01.008c.146.174.244.39.244.635a1 1 0 01-1 1h-10v5H13v.5h12v-5h10a1 1 0 001-1 .984.984 0 00-.244-.635zM12.5 36.5h-10a.987.987 0 01-.409-.092A.998.998 0 003 37h9.5v-.5z"/>
  </g>
  <g fill="#0F0">
    <path d="M24 10H12a2 2 0 00-2 2v4a2 2 0 002 2h12a2 2 0 002-2v-4a2 2 0 00-2-2zM24 42H12a2 2 0 00-2 2v6a2 2 0 002 2h12a2 2 0 002-2v-6a2 2 0 00-2-2z"/>
  </g>
  <g fill="red">
    <path d="M17 53h2v1h-2zM0 0v2h8l4 4v3h12V6l4-4h8V0zM34.766 34.357L24 21.527V19H12v2.526L1.234 34.356l.01.009A.984.984 0 001 35a1 1 0 001 1h10v5h12v-5h10a1 1 0 001-1 .984.984 0 00-.244-.635l.01-.008zM4.145 34L12 24.638V34H4.145zM24 24.639L31.855 34H24v-9.361z"/>
  </g>
</svg>
