<svg
  xmlns="http://www.w3.org/2000/svg" viewBox="0 0 64 64">
  <g fill="#E60012">
    <path d="M32 34c7.732 0 14-6.268 14-14S39.732 6 32 6s-14 6.268-14 14 6.268 14 14 14zm-6-18h12a4 4 0 014 4 6 6 0 01-6 6h-8a6 6 0 01-6-6 4 4 0 014-4zM44 38h-6a2 2 0 00-2-2h-8a2 2 0 00-2 2h-6a8 8 0 00-8 8v14h4.524A15.984 15.984 0 0116 56c0-8.837 7.164-16 16-16s16 7.163 16 16c0 1.384-.194 2.72-.524 4H52V46a8 8 0 00-8-8z"/>
    <path d="M32 42c-7.732 0-14 6.268-14 14 0 1.392.21 2.732.588 4h2.104A11.959 11.959 0 0120 56c0-1.472.278-2.876.763-4.179L30 57.155V60h4v-2.845l9.237-5.334A11.95 11.95 0 0144 56c0 1.404-.249 2.749-.692 4h2.104A13.97 13.97 0 0046 56c0-7.732-6.268-14-14-14zm0 11.691l-9.247-5.339A11.977 11.977 0 0132 44c3.721 0 7.046 1.694 9.247 4.353L32 53.691z"/>
  </g>
</svg>
