<svg xmlns="http://www.w3.org/2000/svg" viewBox="0 0 64 64">
  <path fill="#E60012" d="M32 34c7.732 0 14-6.268 14-14S39.732 6 32 6c-7.73 0-14 6.268-14 14s6.268 14 14 14zm-6-18h12a4 4 0 014 4 6 6 0 01-6 6h-8a6 6 0 01-6-6 4 4 0 014-4zM44 38h-6a2 2 0 00-2-2h-8a2 2 0 00-2 2h-6a8 8 0 00-8 8v14h4.524A15.978 15.978 0 0116 56c0-8.837 7.164-16 16-16s16 7.163 16 16c0 1.384-.192 2.721-.522 4H52V46a8 8 0 00-8-8z"/>
  <path fill="#E60012" d="M32 42c-7.73 0-14 6.268-14 14 0 1.393.21 2.732.588 4h2.104A11.959 11.959 0 0120 56c0-1.473.278-2.876.765-4.18L30 57.154V60h4v-2.846l9.237-5.334c.485 1.305.763 2.707.763 4.18 0 1.404-.249 2.749-.69 4h2.104c.376-1.268.586-2.607.586-4 0-7.732-6.268-14-14-14zm0 11.691l-9.247-5.34A11.976 11.976 0 0132 44c3.723 0 7.046 1.693 9.247 4.354L32 53.691z"/>
</svg>
