<svg xmlns="http://www.w3.org/2000/svg" viewBox="0 0 64 64">
  <path fill="#E60012" d="M52.079 40.354h-8.008c-1.442 0-2.164.723-2.164 2.164V54.76c0 .301.099.551.297.748.273.273.653.41 1.138.41.563 0 .976-.175 1.241-.521.137-.187.205-.397.205-.637v-5.507h6.316a.866.866 0 00.472-.123c.349-.212.523-.563.523-1.058 0-.401-.123-.723-.369-.963a.869.869 0 00-.625-.246h-6.316v-3.649c0-.253.126-.38.379-.38h6.911a.894.894 0 00.492-.134c.354-.226.533-.599.533-1.117 0-.403-.123-.726-.369-.964a.887.887 0 00-.656-.265zM52.216 9.062l-.003-.006-13.61 7.857-3.772 3.773-5.657 5.656-2.826 2.829-5.657 5.656-3.776 3.773-7.859 13.613.006.003a1.992 1.992 0 00.31 2.411 2 2 0 002.829 0c.127-.127.226-.27.313-.419l.007.005 7.594-13.154 20.942-20.941 13.155-7.597-.003-.006c.148-.086.291-.185.418-.312a2 2 0 000-2.828 1.993 1.993 0 00-2.411-.313zM11.494 53.92a.998.998 0 01-1.415 0 1 1 0 111.415 0zM53.92 11.494a1 1 0 11-1.415-1.414 1 1 0 011.415 1.414z"/>
</svg>
