<svg xmlns="http://www.w3.org/2000/svg" viewBox="0 0 64 64">
  <g fill="#00F">
    <path d="M43.646 39.132c.097.188.163.397.163.649 0 .492-.174.845-.523 1.057a.866.866 0 01-.472.123h-6.316v5.506c0 .24-.068.451-.205.637-.267.348-.68.522-1.241.522a1.65 1.65 0 01-.85-.229.973.973 0 00.212.319c.273.273.653.41 1.138.41.561 0 .974-.175 1.241-.522.137-.186.205-.396.205-.637v-5.506h6.316a.866.866 0 00.472-.123c.349-.212.523-.564.523-1.057 0-.402-.123-.724-.369-.963a.886.886 0 00-.294-.186zM44.944 32.827a.897.897 0 00-.303-.201c.102.192.172.405.172.665 0 .52-.178.893-.533 1.117a.908.908 0 01-.492.134h-6.911c-.253 0-.379.127-.379.38v3.65h.5v-3.15c0-.253.126-.38.379-.38h6.911a.903.903 0 00.492-.134c.355-.225.533-.598.533-1.117 0-.403-.123-.725-.369-.964zM1.788 44.214a.999.999 0 000 1.414c.089.089.193.151.301.2-.165-.368-.103-.813.199-1.114s.746-.364 1.114-.199a.983.983 0 00-.2-.301.999.999 0 00-1.414 0z"/>
    <path d="M46.835 1.581c-.07-.069-.156-.107-.232-.165.498.773.41 1.815-.267 2.493-.127.127-.27.226-.418.312l.003.006-13.157 7.597-20.942 20.942-7.594 13.155-.007-.005a1.946 1.946 0 01-.311.419 1.999 1.999 0 01-2.494.268c.057.077.095.163.165.232a2 2 0 002.829 0c.127-.127.226-.27.311-.419l.007.005 7.594-13.155 20.942-20.942 13.157-7.597-.003-.006c.148-.086.291-.185.418-.312a2 2 0 00-.001-2.828z"/>
    <path d="M44.515 3.401a.992.992 0 01.2-1.113.994.994 0 011.114-.2 1.006 1.006 0 00-.199-.3 1 1 0 10-1.415 1.414.946.946 0 00.3.199z"/>
  </g>
  <g fill="red">
    <path d="M43.288 31.561H35.28c-1.442 0-2.164.722-2.164 2.164v12.242c0 .302.099.551.297.749.273.273.653.41 1.138.41.561 0 .974-.175 1.241-.522.137-.186.205-.396.205-.637v-5.506h6.316a.866.866 0 00.472-.123c.349-.212.523-.564.523-1.057 0-.402-.123-.724-.369-.963a.869.869 0 00-.625-.246h-6.316v-3.65c0-.253.126-.38.379-.38h6.911a.903.903 0 00.492-.134c.355-.225.533-.598.533-1.117 0-.403-.123-.725-.369-.964a.891.891 0 00-.656-.266zM43.425.27l-.003-.006L29.81 8.121l-3.772 3.773-5.657 5.656-2.828 2.829-5.657 5.656-3.772 3.772-7.86 13.614.006.003a1.995 1.995 0 003.139 2.411c.127-.127.226-.27.311-.419l.007.005 7.594-13.155 20.942-20.942L45.42 3.727l-.003-.006c.148-.086.291-.185.418-.312A1.994 1.994 0 0043.425.27zM2.703 45.128a1 1 0 11-1.415-1.414 1 1 0 111.415 1.414zM45.129 2.702a1 1 0 11-1.415-1.414 1 1 0 011.415 1.414z"/>
  </g>
</svg>
