<svg
  xmlns="http://www.w3.org/2000/svg" viewBox="0 0 64 64">
  <g fill="#E60012">
    <path d="M52.079 40.353h-8.008c-1.442 0-2.164.722-2.164 2.164v12.242c0 .302.099.551.297.749.273.273.653.41 1.138.41.561 0 .974-.175 1.241-.522.137-.186.205-.396.205-.637v-5.506h6.316a.866.866 0 00.472-.123c.349-.212.523-.564.523-1.057 0-.402-.123-.724-.369-.963a.869.869 0 00-.625-.246h-6.316v-3.65c0-.253.126-.38.379-.38h6.911a.903.903 0 00.492-.134c.355-.225.533-.598.533-1.117 0-.403-.123-.725-.369-.964a.888.888 0 00-.656-.266zM54.627 9.373a2 2 0 00-2.829 0L39.071 22.101a2 2 0 00-2.828 0L22.101 36.242a2 2 0 000 2.829L9.373 51.799a2 2 0 102.829 2.828l42.426-42.426a2 2 0 00-.001-2.828zM11.494 53.92a.999.999 0 11-1.414-1.414.999.999 0 111.414 1.414zM53.92 11.494a1.001 1.001 0 11-1.415-1.416 1.001 1.001 0 011.415 1.416z"/>
  </g>
</svg>
