<svg
  xmlns="http://www.w3.org/2000/svg" viewBox="0 0 64 64">
  <g fill="#E60012">
    <path d="M24 20a6 6 0 000 12 6 6 0 000-12zm0 10a4 4 0 110-8 4 4 0 010 8z"/>
    <path d="M36.092 36.478l-.879-2.12c.388-.521.751-1.06 1.064-1.631l2.277-.08-1.439-1.785c.224-.604.416-1.225.556-1.865l2.167-.72-1.886-1.309c.021-.322.048-.641.048-.968s-.027-.647-.049-.969l1.886-1.309-2.167-.721c-.14-.641-.332-1.26-.556-1.864l1.439-1.785-2.277-.08a14.01 14.01 0 00-1.065-1.631l.879-2.12-2.208.564a14.19 14.19 0 00-1.48-1.265l.247-2.282-1.958 1.162a13.937 13.937 0 00-1.779-.797l-.406-2.257-1.555 1.671a14.009 14.009 0 00-1.927-.267L24 10l-1.026 2.052c-.656.048-1.301.132-1.928.267l-1.554-1.67-.406 2.256c-.613.229-1.212.487-1.78.798L15.35 12.54l.247 2.281a14.09 14.09 0 00-1.481 1.266l-2.207-.564.879 2.119c-.388.521-.751 1.06-1.065 1.632l-2.275.08 1.439 1.784a13.923 13.923 0 00-.556 1.865l-2.166.72 1.885 1.308c-.023.322-.05.642-.05.969s.027.647.049.969l-1.885 1.308 2.166.72c.14.641.332 1.261.556 1.866l-1.439 1.783 2.275.08c.314.572.678 1.111 1.066 1.632l-.879 2.119 2.207-.564c.46.459.961.874 1.481 1.266l-.247 2.281 1.956-1.162c.569.311 1.168.568 1.781.799l.405 2.255 1.553-1.67c.628.136 1.273.22 1.929.268L24 42l1.026-2.052a14.023 14.023 0 001.928-.267l1.554 1.67.406-2.256c.613-.23 1.212-.488 1.78-.798l1.957 1.162-.247-2.282c.52-.392 1.021-.807 1.48-1.265l2.208.566zM24 34a8 8 0 110-16 8 8 0 010 16zM46 40a4 4 0 100 8 4 4 0 000-8zm0 6a2 2 0 11.001-4.001A2 2 0 0146 46z"/>
    <path d="M57.878 45.708l-1.897-1.316c.004-.131.019-.26.019-.392s-.015-.261-.02-.392l1.897-1.316-2.189-.728a9.998 9.998 0 00-.218-.758l1.445-1.792-2.305-.082a9.957 9.957 0 00-.424-.664l.882-2.127-2.235.571c-.192-.18-.387-.355-.593-.52l.247-2.288-1.981 1.176a10 10 0 00-.719-.334l-.407-2.261-1.568 1.686c-.259-.047-.52-.093-.786-.12L46 32l-1.026 2.052c-.266.027-.526.073-.786.12l-1.568-1.686-.407 2.261a9.595 9.595 0 00-.719.335l-1.981-1.177.247 2.288c-.206.165-.401.34-.593.52l-2.235-.571.882 2.127c-.151.215-.29.438-.424.664l-2.305.082 1.445 1.792a9.998 9.998 0 00-.218.758l-2.189.728 1.897 1.316c-.005.13-.02.259-.02.391s.015.26.02.391l-1.897 1.317 2.189.728c.064.257.135.51.218.757l-1.445 1.793 2.305.082c.134.227.273.449.423.664l-.881 2.127 2.235-.571c.191.18.387.354.592.52l-.247 2.288 1.981-1.177a10 10 0 00.719.334l.407 2.262 1.568-1.686c.26.047.52.093.786.12L46 56l1.026-2.052c.266-.027.527-.073.786-.12l1.568 1.686.407-2.261a9.98 9.98 0 00.719-.335l1.981 1.177-.247-2.288c.206-.165.401-.34.593-.52l2.235.571-.882-2.127c.151-.215.29-.438.424-.664l2.305-.082-1.445-1.792c.083-.248.154-.501.218-.758l2.19-.727zM46 50a6 6 0 010-12 6 6 0 010 12z"/>
  </g>
</svg>
