<svg xmlns="http://www.w3.org/2000/svg" viewBox="0 0 64 64">
  <g fill="#00F">
    <path d="M13.782 19.555A3.966 3.966 0 0112.836 17a4 4 0 014-4c.977 0 1.86.364 2.555.945a3.975 3.975 0 00-3.055-1.445 4 4 0 00-4 4c0 1.232.57 2.32 1.446 3.055z"/>
    <path d="M20.817 12.52a5.971 5.971 0 011.52 3.98 6 6 0 01-6 6 5.965 5.965 0 01-3.98-1.52 5.979 5.979 0 004.48 2.02 6 6 0 006-6 5.98 5.98 0 00-2.02-4.48zM10.941 22.395A7.962 7.962 0 018.836 17a8 8 0 018-8c2.082 0 3.972.802 5.395 2.105A7.969 7.969 0 0016.336 8.5a8 8 0 00-8 8 7.97 7.97 0 002.605 5.895zM21.25 3.404c.149.056.295.12.442.18l-.349-1.937-.343.37.25 1.387zM2.385 15.53l-1.236-.857-.149.05 1.378.956.007-.149zM31.849 14.448l-1.561 1.083c.022.321.049.642.049.969s-.027.646-.049.968l.507.352c.02-.271.042-.542.042-.819 0-.327-.027-.647-.049-.969l1.886-1.309-.825-.275zM17.362 2.552c.089.007.175.02.264.027L16.836 1l-.125.25.651 1.302zM24.74 5.321c.174.131.341.27.51.406l.236-2.188-.592.352-.154 1.43zM30.512 10.321l-1.061 1.316c.224.604.416 1.224.556 1.864l.405.135a14.45 14.45 0 00-.46-1.499l1.439-1.785-.879-.031zM28.137 6.724l-.588 1.418c.388.52.751 1.059 1.065 1.631l.202.007c-.24-.39-.494-.771-.767-1.138l.879-2.12-.791.202zM7.933 27.678a14.09 14.09 0 01-1.481-1.266l-1.415.362-.292.702 2.207-.564c.307.306.635.587.971.859l.01-.093zM13.382 2.818l.03-.005-1.083-1.165-.006.032 1.059 1.138zM32.674 19.276l-.649-.45-2.018.67a13.88 13.88 0 01-.556 1.865l1.439 1.785-2.277.08c-.313.571-.677 1.11-1.064 1.631l.879 2.12-2.208-.564c-.459.458-.96.873-1.48 1.265l.247 2.282-1.957-1.162c-.568.31-1.167.567-1.78.798l-.4 2.225.494.531.406-2.256c.613-.23 1.212-.488 1.78-.798l1.957 1.162-.247-2.282c.52-.392 1.021-.807 1.48-1.265l2.208.564-.879-2.12c.388-.521.751-1.06 1.064-1.631l2.277-.08-1.439-1.785c.224-.604.416-1.225.556-1.865l2.167-.72zM15.311 30.448a13.907 13.907 0 01-1.929-.268l-1.209 1.301.156.869 1.553-1.67c.543.117 1.101.19 1.666.24l-.237-.472zM19.291 30.182c-.627.135-1.272.219-1.928.267l-.901 1.802.374.749 1.026-2.052c.646-.047 1.28-.13 1.898-.262l-.469-.504zM2.666 19.496l-1.34-.445-.326.225 1.761.585c-.031-.122-.068-.241-.095-.365zM11.423 29.596a13.836 13.836 0 01-1.781-.799l-1.363.811-.092.852 1.956-1.162c.43.234.881.434 1.339.618l-.059-.32zM4.058 23.226l-1.397-.049-.378.469 2.074.073c-.102-.164-.206-.324-.299-.493zM37.196 36.141a1.986 1.986 0 01-.36-1.141 2 2 0 013.14-1.641 1.993 1.993 0 00-1.64-.859 2 2 0 00-2 2c0 .68.342 1.278.86 1.641z"/>
    <path d="M41.391 31.945c.582.695.945 1.578.945 2.555a4 4 0 01-4 4c-.977 0-1.86-.364-2.555-.945.735.876 1.823 1.445 3.055 1.445a4 4 0 004-4c0-1.232-.569-2.32-1.445-3.055zM28.356 34.108l-1.248-.866-.149.05 1.39.965.007-.149zM42.124 25.247c.153.063.299.137.447.208l-.354-1.969-.343.369.25 1.392z"/>
    <path d="M34.356 38.98a5.971 5.971 0 01-1.52-3.98 6 6 0 016-6c1.529 0 2.921.577 3.98 1.52a5.979 5.979 0 00-4.48-2.02 6 6 0 00-6 6c0 1.784.784 3.382 2.02 4.48zM44.577 26.693c.175.14.341.291.506.443l.24-2.231-.592.352-.154 1.436zM49.889 33.018l-1.572 1.091c.005.131.02.26.02.392s-.015.261-.02.392l.507.352c.005-.08.012-.161.012-.243 0-.132-.015-.261-.02-.392l1.897-1.316-.824-.276zM39.363 24.552c.091.01.18.028.271.041L38.836 23l-.125.25.652 1.302zM47.114 27.344l-.591 1.425c.151.215.29.438.424.664l.185.007c-.037-.057-.07-.115-.109-.171l.882-2.127-.791.202zM48.874 29.983l-1.067 1.323c.083.248.154.501.218.758l.394.131c-.037-.13-.069-.262-.112-.389l1.445-1.792-.878-.031zM37.31 44.448a10.196 10.196 0 01-.786-.12l-1.225 1.316.156.869 1.568-1.686c.17.03.343.054.516.079l-.229-.458zM36.524 24.672l.03-.005-1.099-1.181-.006.031 1.075 1.155zM34.548 43.752a10.205 10.205 0 01-.719-.334l-1.389.825-.092.852 1.981-1.177c.089.045.182.083.271.126l-.052-.292zM50.714 36.708l-.649-.45-2.04.678c-.064.257-.135.51-.218.758l1.445 1.792-2.305.082a9.957 9.957 0 01-.424.664l.882 2.127-2.235-.571c-.191.18-.387.354-.593.52l.247 2.288-1.981-1.177c-.235.12-.474.234-.719.335l-.401 2.229.494.531.407-2.261a9.98 9.98 0 00.719-.335l1.981 1.177-.247-2.288c.206-.165.401-.34.593-.52l2.235.571-.882-2.127c.151-.215.29-.438.424-.664l2.305-.082-1.445-1.792c.083-.248.154-.501.218-.758l2.189-.727zM40.149 44.328c-.259.047-.52.093-.786.12l-.901 1.802.374.75 1.026-2.052c.256-.026.506-.07.756-.115l-.469-.505zM28.648 36.936l-1.364-.453-.325.226 1.796.597c-.036-.124-.076-.245-.107-.37zM32.089 42.362l.006-.056c-.205-.165-.401-.34-.592-.52l-1.444.369-.291.702 2.235-.571c.028.027.058.051.086.076zM29.726 39.567l-1.427-.051-.378.469 2.119.075a10.533 10.533 0 01-.314-.493z"/>
  </g>
  <g fill="#0F0">
    <path d="M37.836 30a4 4 0 100 8 4 4 0 000-8zm0 6a2 2 0 11.001-4.001A2 2 0 0137.836 36z"/>
    <path d="M49.714 35.708l-1.897-1.316c.005-.131.02-.26.02-.392s-.015-.261-.02-.392l1.897-1.316-2.189-.728a9.998 9.998 0 00-.218-.758l1.445-1.792-2.305-.082a9.957 9.957 0 00-.424-.664l.882-2.127-2.235.571c-.192-.18-.387-.355-.593-.52l.247-2.288-1.981 1.176a10 10 0 00-.719-.334l-.407-2.261-1.568 1.686c-.259-.047-.52-.093-.786-.12L37.836 22l-1.026 2.052c-.266.027-.526.073-.786.12l-1.568-1.686-.407 2.261a9.595 9.595 0 00-.719.335l-1.981-1.177.247 2.288c-.206.165-.401.34-.593.52l-2.235-.571.882 2.127c-.151.215-.29.438-.424.664l-2.305.082 1.445 1.792a9.998 9.998 0 00-.218.758l-2.189.728 1.897 1.316c-.005.131-.02.26-.02.392s.015.26.02.391l-1.897 1.317 2.189.728c.064.257.135.51.218.757l-1.445 1.793 2.305.082c.134.227.273.449.423.664l-.881 2.127 2.235-.571c.191.18.387.354.592.52l-.247 2.288 1.981-1.177a10 10 0 00.719.334l.407 2.262 1.568-1.686c.26.047.52.093.786.12L37.836 46l1.026-2.052c.266-.027.527-.073.786-.12l1.568 1.686.407-2.261a9.98 9.98 0 00.719-.335l1.981 1.177-.247-2.288c.206-.165.401-.34.593-.52l2.235.571-.882-2.127c.151-.215.29-.438.424-.664l2.305-.082-1.445-1.792c.083-.248.154-.501.218-.758l2.19-.727zM37.836 40a6 6 0 010-12 6 6 0 010 12z"/>
  </g>
  <g fill="red">
    <path d="M15.836 10a6 6 0 000 12 6 6 0 000-12zm0 10a4 4 0 110-8 4 4 0 010 8z"/>
    <path d="M27.929 26.478l-.879-2.12c.388-.521.751-1.06 1.064-1.631l2.277-.08-1.439-1.785c.224-.604.416-1.225.556-1.865l2.167-.72-1.886-1.309c.022-.321.049-.641.049-.968s-.027-.647-.049-.969l1.886-1.309-2.167-.721c-.14-.641-.332-1.26-.556-1.864l1.439-1.785-2.277-.08a13.913 13.913 0 00-1.065-1.63l.879-2.12-2.208.564a14.19 14.19 0 00-1.48-1.265l.247-2.282-1.958 1.162a13.937 13.937 0 00-1.779-.797L20.344.647l-1.555 1.671a14.009 14.009 0 00-1.927-.267L15.836 0 14.81 2.052c-.655.048-1.3.132-1.928.266L11.328.648l-.406 2.256c-.613.229-1.212.487-1.78.798L7.186 2.54l.247 2.281a14.09 14.09 0 00-1.481 1.266l-2.207-.565.879 2.119c-.388.521-.751 1.06-1.065 1.632l-2.275.08 1.439 1.784a13.923 13.923 0 00-.556 1.865L0 13.723l1.885 1.308c-.022.322-.049.642-.049.969s.027.647.049.969L0 18.276l2.166.72c.14.641.332 1.261.556 1.866l-1.439 1.783 2.275.08c.314.572.678 1.111 1.066 1.632l-.879 2.119 2.207-.564c.46.459.961.874 1.481 1.266l-.247 2.281 1.956-1.162c.569.311 1.168.568 1.781.799l.405 2.255 1.553-1.67c.628.136 1.273.22 1.929.268L15.836 32l1.026-2.052a14.023 14.023 0 001.928-.267l1.554 1.67.406-2.256c.613-.23 1.212-.488 1.78-.798l1.957 1.162-.247-2.282c.52-.392 1.021-.807 1.48-1.265l2.209.566zM15.836 24a8 8 0 110-16 8 8 0 010 16z"/>
  </g>
</svg>
