<svg xmlns="http://www.w3.org/2000/svg" viewBox="0 0 64 64">
  <path fill="#E60012" d="M24 20a6 6 0 000 12 6 6 0 000-12zm0 10a4 4 0 110-8 4 4 0 010 8z"/>
  <path fill="#E60012" d="M36.092 36.479l-.879-2.121c.39-.521.751-1.06 1.064-1.631l2.277-.08-1.439-1.785c.224-.604.416-1.225.556-1.865l2.167-.72-1.886-1.309c.021-.322.048-.641.048-.968s-.025-.647-.049-.969l1.886-1.309-2.167-.721c-.14-.641-.332-1.26-.556-1.864l1.439-1.785-2.277-.08a14.01 14.01 0 00-1.065-1.631l.879-2.12-2.208.564c-.46-.458-.96-.873-1.479-1.265l.247-2.282-1.959 1.162a13.937 13.937 0 00-1.779-.797l-.406-2.257-1.555 1.671a14.009 14.009 0 00-1.927-.267L24 10l-1.024 2.052c-.656.048-1.303.132-1.93.267l-1.554-1.67-.406 2.256c-.611.229-1.212.487-1.778.798L15.35 12.54l.247 2.281c-.521.392-1.021.807-1.481 1.266l-2.207-.564.879 2.119c-.388.521-.751 1.06-1.063 1.632l-2.275.08 1.439 1.784a13.93 13.93 0 00-.558 1.865l-2.166.72 1.885 1.308c-.023.322-.05.642-.05.969s.027.647.049.969l-1.885 1.308 2.166.72c.142.641.332 1.261.558 1.866l-1.439 1.784 2.275.08c.313.571.678 1.11 1.064 1.631l-.879 2.119 2.207-.563c.46.459.961.874 1.481 1.268l-.247 2.279 1.956-1.162c.567.313 1.168.568 1.779.801l.405 2.254 1.553-1.67c.628.137 1.273.221 1.931.269L24 42l1.026-2.053a13.87 13.87 0 001.928-.266l1.554 1.67.406-2.256c.613-.23 1.212-.488 1.78-.8l1.957 1.162-.247-2.28c.52-.394 1.021-.809 1.479-1.267l2.209.569zM24 34a8 8 0 110-16 8 8 0 010 16zM46 40a4 4 0 100 8 4 4 0 000-8zm0 6a2 2 0 11.001-4.001A2 2 0 0146 46z"/>
  <path fill="#E60012" d="M57.878 45.708l-1.896-1.315c.003-.131.018-.261.018-.393s-.015-.262-.02-.393l1.896-1.315-2.188-.728a9.867 9.867 0 00-.218-.758l1.443-1.793-2.305-.082a9.706 9.706 0 00-.424-.664l.882-2.127-2.235.57a9.519 9.519 0 00-.593-.521l.247-2.287-1.981 1.177a10.485 10.485 0 00-.719-.334l-.407-2.261-1.566 1.686a10.196 10.196 0 00-.786-.12L46 32l-1.024 2.053a9.596 9.596 0 00-.786.119l-1.568-1.686-.407 2.261a9.98 9.98 0 00-.719.335l-1.979-1.178.246 2.289c-.205.164-.4.34-.594.52l-2.233-.57.882 2.127c-.151.215-.29.438-.424.664l-2.307.082 1.445 1.791c-.083.248-.154.502-.218.758l-2.189.729 1.897 1.315c-.007.129-.022.259-.022.391s.017.26.021.391l-1.897 1.317 2.189.728c.063.258.135.51.218.758l-1.445 1.793 2.307.082c.134.228.271.449.423.664l-.881 2.127 2.233-.57c.191.182.389.354.592.521l-.245 2.287 1.979-1.178c.235.119.473.232.719.334l.407 2.264 1.568-1.688c.26.047.52.093.786.12L46 56l1.026-2.053c.266-.026.527-.072.786-.119l1.566 1.686.407-2.261a9.98 9.98 0 00.719-.335l1.981 1.178-.247-2.289c.206-.164.401-.34.593-.52l2.235.57-.882-2.127c.149-.215.29-.438.424-.664l2.305-.082-1.443-1.791c.083-.248.152-.502.218-.758l2.19-.727zM46 50c-3.313 0-6-2.688-6-6s2.688-6 6-6c3.313 0 6 2.688 6 6s-2.687 6-6 6z"/>
</svg>
