<svg xmlns="http://www.w3.org/2000/svg" viewBox="0 0 64 64">
  <path fill="#E60012" d="M50.182 48.813c2.521-.431 3.782-1.797 3.782-4.103 0-.956-.275-1.79-.831-2.502a4.05 4.05 0 00-1.333-1.127c-.923-.485-2.126-.729-3.607-.729H44.45c-1.695 0-2.543.85-2.543 2.543v11.844c0 .227.055.422.164.584.253.396.673.597 1.261.597.451 0 .817-.126 1.099-.38.226-.205.338-.473.338-.801v-5.566h2.521l4.276 6.01c.349.484.803.729 1.364.729.349 0 .68-.088.993-.266.426-.24.638-.601.638-1.078 0-.287-.094-.543-.277-.77l-4.102-4.985zm-5.414-1.95v-3.742c0-.28.14-.421.42-.421h2.646c2.03 0 3.045.685 3.045 2.051 0 1.409-1.049 2.112-3.146 2.112h-2.965zM54.627 9.373a1.999 1.999 0 00-2.829 0l-6.627 6.628v-.144H29.175a1.994 1.994 0 00-1.418.586l-2.827 2.829-4.242-4.243-2.829 2.828L22.1 22.1l-5.657 5.657a1.98 1.98 0 00-.585 1.419V45.17H16l-6.628 6.628a2 2 0 102.829 2.828L54.627 12.2a1.998 1.998 0 000-2.827zM11.494 53.92a.999.999 0 11-1.414-1.414.999.999 0 111.414 1.414zm11.314-33.941a.999.999 0 111.414 1.414.999.999 0 11-1.414-1.414zm-2.951 21.334V30L30 19.857h11.313L19.857 41.313zm34.063-29.82a.999.999 0 110-1.414.999.999 0 010 1.414z"/>
</svg>
