<svg
  xmlns="http://www.w3.org/2000/svg" viewBox="0 0 64 64">
  <g fill="#E60012">
    <path d="M50.182 48.812c2.522-.43 3.784-1.797 3.784-4.102 0-.956-.277-1.79-.831-2.502a4.082 4.082 0 00-1.333-1.127c-.923-.485-2.126-.729-3.609-.729H44.45c-1.695 0-2.543.848-2.543 2.543v11.844c0 .225.055.42.164.584.253.396.673.595 1.261.595.451 0 .817-.126 1.097-.38.226-.205.338-.471.338-.799v-5.568h2.522l4.276 6.009c.349.485.803.728 1.364.728.349 0 .68-.088.995-.266.424-.239.636-.599.636-1.077 0-.287-.092-.544-.277-.769l-4.101-4.984zm-5.414-1.948v-3.743c0-.28.14-.421.42-.421h2.646c2.03 0 3.045.685 3.045 2.051 0 1.409-1.049 2.113-3.148 2.113h-2.963zM54.627 9.373a1.999 1.999 0 00-2.829 0l-6.627 6.628v-.144H29.175a1.991 1.991 0 00-1.418.586l-2.829 2.829-4.242-4.243-2.829 2.828L22.1 22.1l-5.657 5.657a1.988 1.988 0 00-.585 1.419V45.17H16l-6.628 6.628a2 2 0 102.829 2.828L54.627 12.2a1.998 1.998 0 000-2.827zM11.494 53.92a.999.999 0 11-1.414-1.414.999.999 0 111.414 1.414zm11.314-33.941a.999.999 0 111.414 1.414.999.999 0 11-1.414-1.414zm-2.951 21.334V30L30 19.857h11.313L19.857 41.313zm34.063-29.82a.999.999 0 110-1.414.999.999 0 010 1.414z"/>
  </g>
</svg>
