<svg xmlns="http://www.w3.org/2000/svg" viewBox="0 0 64 64">
  <path fill="#E60012" d="M32 18C16.536 18 4 24.268 4 32s12.536 14 28 14 28-6.268 28-14-12.536-14-28-14zm2.5 3.335c4.782 1.381 6.42 4.438 3.66 6.83l-17.32-5c2.761-2.392 8.877-3.211 13.66-1.83zM36 32c0 1.104-1.791 2-4 2s-4-.896-4-2 1.791-2 4-2 4 .896 4 2zm-21.67 5.581c-4.783-1.382-6.422-4.438-3.66-6.831 2.763-2.392 8.877-3.211 13.66-1.83l-10 8.661zm15.17 5.084c-4.783-1.381-6.421-4.438-3.66-6.83l17.32 5c-2.76 2.392-8.877 3.211-13.66 1.83zm23.829-9.416c-2.762 2.392-8.877 3.211-13.659 1.83l9.998-8.659c4.782 1.381 6.421 4.438 3.661 6.829z"/>
</svg>
