<svg xmlns="http://www.w3.org/2000/svg" viewBox="0 0 64 64">
  <g fill="#00F">
    <path d="M36.5 25v1.5H21v.5h16v-2zM12.5 1v7.5H1V9h12V1z"/>
    <path d="M6.5 2.5a1.999 1.999 0 00-1.14 3.641A1.988 1.988 0 015 5a2 2 0 013.14-1.641A1.996 1.996 0 006.5 2.5zM20.5 2.5a1.999 1.999 0 00-1.14 3.641A1.988 1.988 0 0119 5a2 2 0 013.14-1.641A1.996 1.996 0 0020.5 2.5z"/>
    <path d="M26.5 1v7.5H15V9h12V1zM34.5 2.5a1.999 1.999 0 00-1.14 3.641A1.988 1.988 0 0133 5a2 2 0 013.14-1.641A1.996 1.996 0 0034.5 2.5z"/>
    <path d="M40.5 1v7.5H29V9h12V1zM48.5 2.5a1.999 1.999 0 00-1.14 3.641A1.988 1.988 0 0147 5a2 2 0 013.14-1.641A1.996 1.996 0 0048.5 2.5z"/>
    <path d="M54.5 1v7.5H43V9h12V1zM41.5 14.5a1.999 1.999 0 00-1.14 3.641A1.988 1.988 0 0140 17a2 2 0 013.14-1.641 1.996 1.996 0 00-1.64-.859z"/>
    <path d="M54.5 13v7.5H29v.5h26v-8zM13.5 14.5a1.999 1.999 0 00-1.14 3.641A1.988 1.988 0 0112 17a2 2 0 013.14-1.641 1.996 1.996 0 00-1.64-.859z"/>
    <path d="M26.5 13v7.5H1v.5h26v-8zM4.5 26.5a1.999 1.999 0 00-1.14 3.641A1.988 1.988 0 013 29a2 2 0 013.14-1.641A1.996 1.996 0 004.5 26.5zM18.5 25v7.5H1v.5h18v-8zM50.5 26.5a1.999 1.999 0 00-1.14 3.641A1.988 1.988 0 0149 29a2 2 0 013.14-1.641 1.996 1.996 0 00-1.64-.859z"/>
    <path d="M54.5 25v7.5H39v.5h16v-8z"/>
  </g>
  <g fill="red">
    <path d="M20 24h16v2H20zM0 0v8h12V0H0zm6 6a2 2 0 11.001-4.001A2 2 0 016 6zM14 0v8h12V0H14zm6 6a2 2 0 11.001-4.001A2 2 0 0120 6zM28 0v8h12V0H28zm6 6a2 2 0 11.001-4.001A2 2 0 0134 6zM42 0v8h12V0H42zm6 6a2 2 0 11.001-4.001A2 2 0 0148 6zM28 12v8h26v-8H28zm13 6a2 2 0 11.001-4.001A2 2 0 0141 18zM0 12v8h26v-8H0zm13 6a2 2 0 11.001-4.001A2 2 0 0113 18zM0 24v8h18v-8H0zm4 6a2 2 0 11.001-4.001A2 2 0 014 30zM38 24v8h16v-8H38zm12 6a2 2 0 11.001-4.001A2 2 0 0150 30z"/>
  </g>
</svg>
