<svg xmlns="http://www.w3.org/2000/svg" viewBox="0 0 64 64">
  <path fill="#E60012" d="M25 40h16v2H25zM5 16v8h12v-8H5zm6 6a2 2 0 11.001-4.001A2 2 0 0111 22zm8-6v8h12v-8H19zm6 6a2 2 0 11.001-4.001A2 2 0 0125 22zm8-6v8h12v-8H33zm6 6a2 2 0 11.001-4.001A2 2 0 0139 22zm8-6v8h12v-8H47zm6 6a2 2 0 11.001-4.001A2 2 0 0153 22zm-20 6v8h26v-8H33zm13 6a2 2 0 11.001-4.001A2 2 0 0146 34zM5 28v8h26v-8H5zm13 6a2 2 0 11.001-4.001A2 2 0 0118 34zM5 40v8h18v-8H5zm4 6a2 2 0 11.001-4.001A2 2 0 019 46zm34-6v8h16v-8H43zm12 6a2 2 0 11.001-4.001A2 2 0 0155 46z"/>
</svg>
