<svg xmlns="http://www.w3.org/2000/svg" viewBox="0 0 64 64">
  <g fill="#00F">
    <path d="M43.321 33.769c0 .328-.123.615-.369.861-.28.28-.615.42-1.005.42-.349 0-.708-.174-1.077-.523-.8-.758-1.699-1.138-2.697-1.138-.793 0-1.436.137-1.928.41-.567.314-.851.776-.851 1.384 0 .541.256.992.769 1.354a.026.026 0 00.009.005 1.474 1.474 0 01-.278-.858c0-.607.284-1.069.851-1.384.492-.273 1.135-.41 1.928-.41.998 0 1.897.38 2.697 1.138.369.35.728.523 1.077.523.39 0 .725-.14 1.005-.42a1.18 1.18 0 00.369-.861c0-.492-.285-.963-.853-1.413.23.294.353.598.353.912zM43.417 39.921c.563.699.847 1.525.847 2.48 0 1.505-.602 2.681-1.805 3.527-1.087.76-2.499 1.139-4.235 1.139-1.641 0-3.086-.396-4.337-1.189a6.991 6.991 0 01-.833-.617c.295.367.739.739 1.333 1.117 1.251.793 2.697 1.189 4.337 1.189 1.736 0 3.148-.379 4.235-1.139 1.203-.847 1.805-2.022 1.805-3.527.001-1.197-.461-2.185-1.347-2.98z"/>
    <path d="M33.815 38.194c.196.251.419.483.696.678.752.526 1.914 1.035 3.486 1.527 1.483.466 2.437.831 2.861 1.098.049.031.083.068.128.102a2.186 2.186 0 00-.628-.602c-.424-.267-1.377-.632-2.861-1.098-1.572-.492-2.734-1.001-3.486-1.527-.075-.053-.128-.121-.196-.178zM42.52 4.234a.993.993 0 01.2-1.113.994.994 0 011.114-.199.983.983 0 00-.2-.301 1 1 0 10-1.415 1.414.962.962 0 00.301.199zM2.622 42.219a.999.999 0 000 1.414.989.989 0 00.301.2.992.992 0 01.199-1.114.994.994 0 011.114-.199.983.983 0 00-.2-.301.999.999 0 00-1.414 0zM3.328 45.755L45.754 3.329l.5.5L3.828 46.255z"/>
  </g>
  <g fill="red">
    <path d="M42.237 38.743c-.684-.546-1.962-1.097-3.835-1.65-1.442-.431-2.355-.782-2.738-1.057-.513-.361-.769-.813-.769-1.354 0-.607.284-1.069.851-1.384.492-.273 1.135-.41 1.928-.41.998 0 1.897.38 2.697 1.138.369.35.728.523 1.077.523.39 0 .725-.14 1.005-.42a1.18 1.18 0 00.369-.861c0-.656-.506-1.275-1.518-1.856-1.066-.608-2.273-.913-3.62-.913-1.935 0-3.415.521-4.44 1.559-.772.779-1.159 1.713-1.159 2.8 0 1.34.475 2.345 1.425 3.015.752.526 1.914 1.035 3.486 1.527 1.483.466 2.437.831 2.861 1.098.629.403.943.937.943 1.6 0 .649-.301 1.152-.902 1.508-.554.335-1.278.502-2.174.502-1.34 0-2.526-.506-3.558-1.518a7.624 7.624 0 00-.441-.42 1.311 1.311 0 00-.81-.277c-.41 0-.749.168-1.015.502a1.213 1.213 0 00-.287.79c0 .711.591 1.442 1.774 2.194 1.251.793 2.697 1.189 4.337 1.189 1.736 0 3.148-.379 4.235-1.139 1.203-.847 1.805-2.022 1.805-3.527.001-1.285-.509-2.339-1.527-3.159zM42.427 0L26.87 7.07 7.071 26.87 0 42.426l2.828 2.829L45.255 2.828 42.427 0zM3.536 43.133a.999.999 0 110-1.414 1 1 0 010 1.414zM41.719 3.535a1 1 0 111.414-1.414 1 1 0 01-1.414 1.414z"/>
  </g>
</svg>
