<svg xmlns="http://www.w3.org/2000/svg" viewBox="0 0 64 64">
  <path fill="#E60012" d="M51.73 48.236c-.686-.545-1.962-1.096-3.835-1.649-1.442-.431-2.355-.782-2.738-1.058-.513-.36-.769-.813-.769-1.354 0-.606.282-1.067.851-1.384.492-.271 1.135-.41 1.928-.41.998 0 1.897.381 2.697 1.139.369.351.728.522 1.077.522.39 0 .725-.142 1.005-.42a1.18 1.18 0 00.369-.86c0-.656-.506-1.275-1.52-1.855-1.064-.608-2.271-.913-3.618-.913-1.937 0-3.415.521-4.44 1.56-.772.778-1.159 1.713-1.159 2.799 0 1.34.477 2.346 1.425 3.017.752.524 1.914 1.034 3.486 1.526 1.483.465 2.437.83 2.861 1.099.629.401.941.938.941 1.601 0 .647-.301 1.151-.9 1.508-.556.336-1.278.502-2.176.502-1.34 0-2.524-.506-3.558-1.519a8.012 8.012 0 00-.441-.42 1.3 1.3 0 00-.81-.276c-.41 0-.749.168-1.015.502a1.212 1.212 0 00-.287.791c0 .711.591 1.44 1.772 2.192 1.251.793 2.697 1.188 4.337 1.188 1.736 0 3.148-.379 4.235-1.14 1.203-.847 1.805-2.022 1.805-3.526.005-1.287-.504-2.339-1.523-3.162zm.19-38.742l-15.557 7.07-19.799 19.799-7.07 15.557 2.828 2.829 42.427-42.427-2.829-2.828zM13.029 52.627a.999.999 0 110-1.414.999.999 0 010 1.414zm38.184-39.598a1 1 0 111.415-1.414 1 1 0 11-1.415 1.414z"/>
</svg>
