<svg
  xmlns="http://www.w3.org/2000/svg" viewBox="0 0 64 64">
  <g fill="#E60012">
    <path d="M51.73 48.237c-.684-.546-1.962-1.097-3.835-1.65-1.442-.431-2.355-.782-2.738-1.057-.513-.361-.769-.813-.769-1.354 0-.607.284-1.069.851-1.384.492-.273 1.135-.41 1.928-.41.998 0 1.897.38 2.697 1.138.369.35.728.523 1.077.523.39 0 .725-.14 1.005-.42a1.18 1.18 0 00.369-.861c0-.656-.506-1.275-1.518-1.856-1.066-.608-2.273-.913-3.62-.913-1.935 0-3.415.521-4.44 1.559-.772.779-1.159 1.713-1.159 2.8 0 1.34.475 2.345 1.425 3.015.752.526 1.914 1.035 3.486 1.527 1.483.466 2.437.831 2.861 1.098.629.403.943.937.943 1.6 0 .649-.301 1.152-.902 1.508-.554.335-1.278.502-2.174.502-1.34 0-2.526-.506-3.558-1.518a7.624 7.624 0 00-.441-.42 1.311 1.311 0 00-.81-.277c-.41 0-.749.168-1.015.502a1.213 1.213 0 00-.287.79c0 .711.591 1.442 1.774 2.194 1.251.793 2.697 1.189 4.337 1.189 1.736 0 3.148-.379 4.235-1.139 1.203-.847 1.805-2.022 1.805-3.527.001-1.285-.508-2.338-1.527-3.159zM51.92 9.494l-15.557 7.07-19.799 19.8-7.07 15.556 2.828 2.829 42.427-42.427-2.829-2.828zM13.029 52.627a.999.999 0 110-1.414.999.999 0 010 1.414zm38.184-39.598a1 1 0 111.414-1.414 1 1 0 01-1.414 1.414z"/>
  </g>
</svg>
