<svg xmlns="http://www.w3.org/2000/svg" viewBox="0 0 64 64">
  <g fill="#00F">
    <path d="M9.785 43.715C5.588 39.393 3 33.5 3 27 3 13.745 13.745 3 27 3c6.5 0 12.393 2.589 16.715 6.785C39.354 5.294 33.255 2.5 26.5 2.5c-13.255 0-24 10.745-24 24 0 6.755 2.794 12.854 7.285 17.215z"/>
    <path d="M45.129 8.371C49.688 13.055 52.5 19.447 52.5 26.5c0 14.359-11.641 26-26 26-7.053 0-13.445-2.813-18.129-7.371C13.095 49.981 19.693 53 27 53c14.359 0 26-11.641 26-26 0-7.307-3.019-13.905-7.871-18.629zM8.777 18.789l-.572-.33A19.887 19.887 0 006.5 26.5c0 2.93.645 5.704 1.777 8.211l-1.523.879c.089.211.176.424.272.632l1.75-1.011C7.645 32.704 7 29.93 7 27s.645-5.704 1.777-8.211z"/>
    <path d="M29 6.664v.437c4.606.458 8.739 2.489 11.883 5.537A19.899 19.899 0 0029 6.664zM42.36 11.269a22.092 22.092 0 012.11 2.547l-1.67.963c.141.182.283.361.417.548l1.752-1.012a22.045 22.045 0 00-2.609-3.046zM46.973 17.777l-.228.132A21.897 21.897 0 0148.5 26.5c0 3.294-.729 6.417-2.026 9.222l-1.179-.68c-.025.056-.046.114-.072.17l1.751 1.01C48.271 33.417 49 30.294 49 27s-.729-6.417-2.027-9.223zM44.359 39.332A21.965 21.965 0 0129 48.346v.56c6.595-.595 12.348-4.099 15.97-9.221l-.611-.353zM24.5 5.154V6.6c-5.855.582-10.953 3.699-14.218 8.227l-1.142-.659c-.036.05-.075.098-.11.147l1.752 1.012C14.047 10.8 19.145 7.683 25 7.101V5.095c-.168.015-.333.04-.5.059zM24.5 46.836v1.569a21.907 21.907 0 01-13.36-6.174A21.924 21.924 0 0025 48.905v-2.006c-.168-.016-.333-.043-.5-.063zM12.616 40.862a20.294 20.294 0 01-1.833-2.189l-.083.048a20.266 20.266 0 001.916 2.141zM11.5 20.129c.164.239.376.449.643.604l6.614 3.819c.016-.062.022-.127.04-.188l-7.154-4.131c-.052-.031-.094-.07-.143-.104zM22.52 30.98A5.965 5.965 0 0121 27a6 6 0 016-6c1.529 0 2.921.577 3.98 1.52a5.979 5.979 0 00-4.48-2.02 6 6 0 00-6 6c0 1.784.783 3.382 2.02 4.48zM42.088 17.5a2 2 0 01-.731 2.732l-7.154 4.131A8.02 8.02 0 0134.5 26.5a7.99 7.99 0 01-.298 2.139l.54.312A7.947 7.947 0 0035 27a8.02 8.02 0 00-.297-2.137l7.154-4.131A2 2 0 0042.588 18a1.983 1.983 0 00-.603-.644c.034.049.074.092.103.144zM28.5 10.5v8.263c.171.044.333.111.5.166V11c0-.68-.341-1.278-.86-1.641.226.325.36.716.36 1.141zM42 33.372a1.995 1.995 0 01-2.644 2.86l-7.151-4.129a7.973 7.973 0 01-3.705 2.134V42.5a2 2 0 01-3.14 1.641c.361.518.96.859 1.64.859a2 2 0 002-2v-8.263a7.973 7.973 0 003.705-2.134l7.151 4.129A2 2 0 0042.588 36 1.992 1.992 0 0042 33.372zM24.5 34.237a7.973 7.973 0 01-3.705-2.134l-7.151 4.129a1.996 1.996 0 01-2.129-.089 1.995 1.995 0 002.629.589l7.151-4.129a7.978 7.978 0 003.205 1.968v-.334z"/>
    <path d="M28.848 24.652c.402.511.652 1.147.652 1.848a3 3 0 01-3 3c-.701 0-1.337-.25-1.848-.652A2.987 2.987 0 0027 30a3 3 0 003-3c0-.956-.456-1.798-1.152-2.348z"/>
  </g>
  <g fill="#0F0">
    <path d="M26 0C11.641 0 0 11.641 0 26s11.641 26 26 26 26-11.641 26-26S40.359 0 26 0zm0 50C12.745 50 2 39.255 2 26S12.745 2 26 2s24 10.745 24 24-10.745 24-24 24z"/>
    <path d="M6.026 16.778C4.729 19.584 4 22.706 4 26s.729 6.416 2.026 9.222l1.75-1.011C6.645 31.704 6 28.93 6 26s.645-5.704 1.777-8.211l-1.751-1.011zM28 4.095v2.006c5.855.582 10.952 3.699 14.217 8.227l1.752-1.012C40.348 8.193 34.595 4.689 28 4.095zM45.973 16.777l-1.75 1.011C45.354 20.296 46 23.07 46 26s-.645 5.704-1.777 8.212l1.751 1.01C47.271 32.417 48 29.294 48 26s-.729-6.417-2.027-9.223zM28 45.899v2.006c6.595-.595 12.348-4.099 15.97-9.221l-1.752-1.012C38.953 42.2 33.855 45.317 28 45.899zM24 6.101V4.095c-6.596.595-12.348 4.1-15.97 9.221l1.752 1.012C13.047 9.8 18.145 6.683 24 6.101zM9.782 37.673L8.03 38.685c3.622 5.121 9.374 8.626 15.97 9.221V45.9c-5.855-.583-10.953-3.7-14.218-8.227z"/>
  </g>
  <g fill="red">
    <path d="M28 33.737a7.973 7.973 0 003.705-2.134l7.151 4.129a2 2 0 102-3.463l-7.154-4.13A7.99 7.99 0 0034 26a8.02 8.02 0 00-.297-2.137l7.154-4.131a2 2 0 00-2-3.463l-7.151 4.129A7.973 7.973 0 0028 18.263V10a2 2 0 00-4 0v8.263a7.973 7.973 0 00-3.705 2.134l-7.151-4.128a2 2 0 10-2 3.463l7.154 4.131A7.974 7.974 0 0018 26c0 .742.109 1.457.298 2.139l-7.154 4.13a1.998 1.998 0 102 3.463l7.151-4.129A7.973 7.973 0 0024 33.737V42a2 2 0 004 0v-8.263zM26 32a6 6 0 010-12 6 6 0 010 12z"/>
    <circle cx="26" cy="26" r="3"/>
  </g>
</svg>
