<svg
  xmlns="http://www.w3.org/2000/svg" viewBox="0 0 64 64">
  <g fill="#E60012">
    <path d="M32 6C17.641 6 6 17.641 6 32s11.641 26 26 26 26-11.641 26-26S46.359 6 32 6zm0 50C18.745 56 8 45.255 8 32S18.745 8 32 8s24 10.745 24 24-10.745 24-24 24z"/>
    <path d="M12.026 22.778C10.729 25.584 10 28.706 10 32s.729 6.416 2.026 9.222l1.75-1.011C12.645 37.704 12 34.93 12 32s.645-5.704 1.777-8.211l-1.751-1.011zM34 10.095v2.006c5.855.582 10.952 3.699 14.217 8.227l1.752-1.012c-3.621-5.123-9.374-8.627-15.969-9.221zM51.973 22.777l-1.75 1.011C51.354 26.296 52 29.07 52 32s-.645 5.704-1.777 8.212l1.751 1.01C53.271 38.417 54 35.294 54 32s-.729-6.417-2.027-9.223zM34 51.899v2.006c6.595-.595 12.348-4.099 15.97-9.221l-1.752-1.012C44.953 48.2 39.855 51.317 34 51.899zM30 12.101v-2.006c-6.596.595-12.348 4.1-15.97 9.221l1.752 1.012C19.047 15.8 24.145 12.683 30 12.101zM15.782 43.673l-1.752 1.012c3.622 5.121 9.374 8.626 15.97 9.221V51.9c-5.855-.583-10.953-3.7-14.218-8.227zM34 39.737a7.973 7.973 0 003.705-2.134l7.151 4.129a2 2 0 102-3.463l-7.154-4.13A7.99 7.99 0 0040 32a8.02 8.02 0 00-.297-2.137l7.154-4.131a2 2 0 00-2-3.463l-7.151 4.129A7.973 7.973 0 0034 24.263V16a2 2 0 00-4 0v8.263a7.973 7.973 0 00-3.705 2.134l-7.151-4.128a2 2 0 10-2 3.463l7.154 4.131A7.974 7.974 0 0024 32c0 .742.109 1.457.298 2.139l-7.154 4.13a1.998 1.998 0 102 3.463l7.151-4.129A7.973 7.973 0 0030 39.737V48a2 2 0 004 0v-8.263zM32 38a6 6 0 010-12 6 6 0 010 12z"/>
    <circle cx="32" cy="32" r="3"/>
  </g>
</svg>
