<svg xmlns="http://www.w3.org/2000/svg" viewBox="0 0 64 64">
  <path fill="#E60012" d="M32 6C17.641 6 6 17.641 6 32s11.643 26 26 26c14.359 0 26-11.641 26-26S46.359 6 32 6zm0 50C18.745 56 8 45.255 8 32S18.745 8 32 8s24 10.745 24 24-10.745 24-24 24z"/>
  <path fill="#E60012" d="M12.026 22.778C10.729 25.584 10 28.706 10 32s.729 6.416 2.026 9.223l1.75-1.012A19.908 19.908 0 0112 32c0-2.93.646-5.704 1.777-8.211l-1.751-1.011zM34 10.095v2.006c5.855.582 10.952 3.699 14.217 8.227l1.754-1.012c-3.623-5.123-9.376-8.627-15.971-9.221zM51.973 22.777l-1.75 1.011A19.917 19.917 0 0152 32c0 2.93-.645 5.704-1.775 8.212l1.751 1.011C53.271 38.417 54 35.294 54 32s-.729-6.417-2.027-9.223zM34 51.898v2.006c6.597-.594 12.35-4.098 15.972-9.221l-1.754-1.013C44.953 48.2 39.855 51.316 34 51.898zM30 12.101v-2.006c-6.596.595-12.348 4.1-15.97 9.221l1.752 1.012C19.047 15.8 24.145 12.683 30 12.101zM15.782 43.673l-1.752 1.013c3.622 5.121 9.374 8.625 15.97 9.221V51.9c-5.855-.584-10.953-3.7-14.218-8.227zM34 39.736a7.953 7.953 0 003.705-2.133l7.151 4.129c.957.552 2.18.225 2.73-.732a1.995 1.995 0 00-.73-2.73l-7.154-4.131A7.99 7.99 0 0040 32a7.94 7.94 0 00-.297-2.137l7.154-4.131A1.997 1.997 0 0047.586 23a1.996 1.996 0 00-2.729-.731l-7.151 4.129A7.963 7.963 0 0034 24.263V16a2 2 0 00-4 0v8.263a7.973 7.973 0 00-3.705 2.134l-7.149-4.128a1.999 1.999 0 10-2 3.463l7.152 4.131A7.974 7.974 0 0024 32c0 .742.109 1.457.298 2.139l-7.152 4.131a2 2 0 002 3.462l7.149-4.129A7.963 7.963 0 0030 39.736V48a2 2 0 004 0v-8.264zM32 38c-3.313 0-6-2.688-6-6a6 6 0 116 6z"/>
  <circle fill="#E60012" cx="32" cy="32" r="3"/>
</svg>
