<svg xmlns="http://www.w3.org/2000/svg" viewBox="0 0 64 64">
<g class="icon-machine body" fill="#0000FF">
<path d="M59,29l1-4l-1.5-2H53l-2,0.5h-3h-2h-2.5h-2l-1,1.5l-3,1.5L35,27h-2.5l-5.100098-0.299805
	L29.5,25.5l5.5-2l3.5-0.5H40v1h0.5l0.5-1h4l-1-1.5L42,21h-1l-0.5,1H39l-5,1l-5.5,2l-3.157715,1.579102L24,26.5l-8-2h-3
	c-3.145996,0-5.835938,1.939453-6.949219,4.686523L5,30.5l-2,1l-2,2v2h6.528809C6.880371,34.489258,6.5,33.290039,6.5,32
	c0-3.588867,2.910156-6.5,6.5-6.5s6.5,2.911133,6.5,6.5c0,1.070313-0.263184,2.077148-0.72168,2.966797L27,34h9.5l6,1H44l1-0.5
	c-0.321289-0.769531-0.5-1.614258-0.5-2.5c0-3.588867,2.910156-6.5,6.5-6.5c3.249023,0,5.933105,2.386719,6.415039,5.5H61v-2H59z
	 M35.5,28l-1,2L34,32h-3l-8.5,0.5h-2V32h2l8.5-0.5h2.5l0.5-2l1-2h0.5V28z"/>
</g>
<g class="icon-machine chassis" fill="#0000FF">
<path d="M45.237305,35H45l-1,0.5h-1.5l-6-1H27l-8.494629,0.944336
	C18.26709,35.824219,17.992676,36.177734,17.683105,36.5H29h5.5h10h1.816895C45.889648,36.055664,45.525391,35.551758,45.237305,35
	z"/>
</g>
<g class="icon-machine bodyoption" fill="#0000FF">
<polygon points="61.5,23 60.5,24.5 60,24 59,22.5 52.5,22.5 51,23 50,23 50.5,22 58.5,17.5 
	62.5,17.5 63,18.5 63,20 	"/>
</g>
<g class="icon-machine front-tire" fill="#0000FF">
<path d="M13,26c-3.313477,0-6,2.686523-6,6s2.686523,6,6,6s6-2.686523,6-6S16.313477,26,13,26z
	 M13,36.5c-2.485352,0-4.5-2.014648-4.5-4.5s2.014648-4.5,4.5-4.5s4.5,2.014648,4.5,4.5S15.485352,36.5,13,36.5z"/>
</g>
<g class="icon-machine front-wheel" fill="#0000FF">
<circle cx="13" cy="32" r="1.5"/>
<path d="M11.080078,32.530273C11.033203,32.360352,11,32.18457,11,32
	c0-0.930664,0.638672-1.706055,1.5-1.929688v-2.019531C10.529785,28.298828,9,29.961914,9,32
	c0,0.549805,0.111816,1.074219,0.3125,1.550781L11.080078,32.530273z"/>
<path d="M15,32c0,0.18457-0.033203,0.360352-0.080078,0.530273l1.767578,1.020508
	C16.888672,33.074219,17,32.549805,17,32c0-2.038086-1.529785-3.701172-3.5-3.949219v2.019531
	C14.361328,30.293945,15,31.069336,15,32z"/>
<path d="M14.425781,33.400391C14.062988,33.769531,13.558594,34,13,34
	c-0.559082,0-1.062988-0.230469-1.425781-0.599609L9.825684,34.40918C10.556641,35.370117,11.700195,36,13,36
	s2.443359-0.629883,3.173828-1.59082L14.425781,33.400391z"/>
</g>
<g class="icon-machine rear-tire" fill="#0000FF">
<path d="M51,26c-3.313477,0-6,2.686523-6,6s2.686523,6,6,6s6-2.686523,6-6S54.313477,26,51,26z
	 M51,36.5c-2.485352,0-4.5-2.014648-4.5-4.5s2.014648-4.5,4.5-4.5s4.5,2.014648,4.5,4.5S53.485352,36.5,51,36.5z"/>
</g>
<g class="icon-machine rear-wheel" fill="#0000FF">
<circle cx="51" cy="32" r="1.5"/>
<path d="M49.080078,32.530273C49.033203,32.360352,49,32.18457,49,32
	c0-0.930664,0.638672-1.706055,1.5-1.929688v-2.019531C48.529785,28.298828,47,29.961914,47,32
	c0,0.549805,0.111816,1.074219,0.3125,1.550781L49.080078,32.530273z"/>
<path d="M53,32c0,0.18457-0.033203,0.360352-0.080078,0.530273l1.767578,1.020508
	C54.888672,33.074219,55,32.549805,55,32c0-2.038086-1.529785-3.701172-3.5-3.949219v2.019531
	C52.361328,30.293945,53,31.069336,53,32z"/>
<path d="M52.425781,33.400391C52.062988,33.769531,51.558594,34,51,34
	c-0.559082,0-1.062988-0.230469-1.425781-0.599609l-1.748535,1.008789C48.556641,35.370117,49.700195,36,51,36
	s2.443359-0.629883,3.173828-1.59082L52.425781,33.400391z"/>
</g>
</svg>
