<svg xmlns="http://www.w3.org/2000/svg" viewBox="0 0 64 64">
<g opacity="0.05" fill="#000000">
	<rect width="8" height="8" x="0" y="0"/>
	<rect width="8" height="8" x="0" y="16"/>
	<rect width="8" height="8" x="0" y="32"/>
	<rect width="8" height="8" x="0" y="48"/>
	<rect width="8" height="8" x="8" y="24"/>
	<rect width="8" height="8" x="8" y="8"/>
	<rect width="8" height="8" x="8" y="40"/>
	<rect width="8" height="8" x="8" y="56"/>
	<rect width="8" height="8" x="16" y="0"/>
	<rect width="8" height="8" x="16" y="16"/>
	<rect width="8" height="8" x="16" y="32"/>
	<rect width="8" height="8" x="16" y="48"/>
	<rect width="8" height="8" x="24" y="8"/>
	<rect width="8" height="8" x="24" y="24"/>
	<rect width="8" height="8" x="24" y="40"/>
	<rect width="8" height="8" x="24" y="56"/>
	<rect width="8" height="8" x="32" y="0"/>
	<rect width="8" height="8" x="32" y="16"/>
	<rect width="8" height="8" x="32" y="32"/>
	<rect width="8" height="8" x="32" y="48"/>
	<rect width="8" height="8" x="40" y="8"/>
	<rect width="8" height="8" x="40" y="24"/>
	<rect width="8" height="8" x="40" y="40"/>
	<rect width="8" height="8" x="40" y="56"/>
	<rect width="8" height="8" x="48" y="0"/>
	<rect width="8" height="8" x="48" y="16"/>
	<rect width="8" height="8" x="48" y="32"/>
	<rect width="8" height="8" x="48" y="48"/>
	<rect width="8" height="8" x="56" y="8"/>
	<rect width="8" height="8" x="56" y="24"/>
	<rect width="8" height="8" x="56" y="40"/>
	<rect width="8" height="8" x="56" y="56"/>
</g>
</svg>
