<svg xmlns="http://www.w3.org/2000/svg" viewBox="0 0 64 64">
<g opacity="0.12" fill="none" stroke="#000000">
	<line x1="10" y1="0" x2="10" y2="64"/>
	<line x1="42" y1="0" x2="42" y2="64"/>
	<line x1="26" y1="0" x2="26" y2="64"/>
	<line x1="58" y1="0" x2="58" y2="64"/>
	<line x1="64" y1="10" x2="0" y2="10"/>
	<line x1="64" y1="42" x2="0" y2="42"/>
	<line x1="64" y1="26" x2="0" y2="26"/>
	<line x1="64" y1="58" x2="0" y2="58"/>
	<line x1="18" y1="0" x2="18" y2="64"/>
	<line x1="50" y1="0" x2="50" y2="64"/>
	<line x1="64" y1="18" x2="0" y2="18"/>
	<line x1="64" y1="50" x2="0" y2="50"/>
	<line x1="2" y1="0" x2="2" y2="64"/>
	<line x1="34" y1="0" x2="34" y2="64"/>
	<line x1="64" y1="2" x2="0" y2="2"/>
	<line x1="64" y1="34" x2="0" y2="34"/>
</g>
</svg>