<svg xmlns="http://www.w3.org/2000/svg" viewBox="0 0 64 64">
  <g fill="#00F">
    <path d="M31.41 33.895l6.119 6.12-5.135 5.134.081.92 5.554-5.554zM51.149 26.396l-5.134 5.133.5.5 5.554-5.553zM20.205 23.544a1.993 1.993 0 00.354 2.328l2.829 2.829-2.329-2.329a2 2 0 010-2.828h-.854zM15 35h5.5v-.5h-6v6h-6v6H9V41h6zM21 40.5h5.5v.5H21zM9.245 25.872l1.414 1.415-.914-.915L32.373 3.745l-.5-.5zM32.372 15.059l-.5-.5a1.992 1.992 0 00-2.329-.354v.854a1.999 1.999 0 012.829 0zM37.195 22.71l.5.5 16.685 1.46-.001.012c.11.01.219.036.322.079a.977.977 0 00-.201-.303.986.986 0 00-.621-.276l.001-.012-16.685-1.46zM48.843 34.357l.5.5a2.001 2.001 0 012.828 0l-.5-.5a2.001 2.001 0 00-2.828 0zM14.5 47h.5v5.5h-.5z"/>
    <path d="M51.957 9.542C57.24 14.95 60.5 22.343 60.5 30.5c0 16.569-13.432 30-30 30-8.157 0-15.549-3.26-20.957-8.542C14.99 57.534 22.589 61 31 61c16.568 0 30-13.431 30-30 0-8.412-3.466-16.01-9.043-21.458z"/>
    <path d="M30.182 47.879c.02.226.103.448.276.621a.975.975 0 00.302.2 1.087 1.087 0 01-.079-.321l-.014.001-1.459-16.686-.5-.5 1.459 16.686.015-.001zM40.857 46.172a2 2 0 010-2.829l-.5-.5a2 2 0 000 2.829l.5.5z"/>
  </g>
  <g fill="red">
    <path d="M31.475 45.069l5.554-5.554-6.619-6.62zM38.896 24.41l6.619 6.619 5.554-5.553z"/>
    <path d="M30 0C13.432 0 0 13.431 0 30s13.432 30 30 30 30-13.431 30-30S46.568 0 30 0zm-4 46h-6v6h-6v-6H8v-6h6v-6h6v6h6v6zm27.293-.121l-1.415 1.414-1.415-1.414-3.535 3.535a2 2 0 01-2.828 0l-4.243-4.242a2 2 0 010-2.829l-1.414-1.414L31.373 48a.999.999 0 01-1.414 0 .981.981 0 01-.276-.621l-.014.001-1.459-16.686-2.493-2.493a2 2 0 01-2.829 0l-2.829-2.829a2 2 0 010-2.828h-5.656l-4.243 4.243-1.414-1.415L31.373 2.745l1.414 1.414-4.243 4.243v5.656a2 2 0 012.829 0l2.829 2.829a2 2 0 010 2.828l2.494 2.494 16.685 1.46-.001.012a.995.995 0 01.621.276.999.999 0 010 1.414l-7.071 7.071 1.414 1.414a2.001 2.001 0 012.828 0l4.243 4.243a2 2 0 010 2.828l-3.536 3.536 1.414 1.416z"/>
  </g>
</svg>
