<svg xmlns="http://www.w3.org/2000/svg" viewBox="-2 -21.338 64 64">
<g id="color3" fill="#0000FF">
<path d="M50.5,13.162c-4.418,0-8,3.582-8,8h-2h-8h-4H16.43c0.076,0.165,0.16,0.327,0.222,0.5H29h4h8h2
	c0-4.418,3.582-8,8-8c2.083,0,3.966,0.81,5.388,2.115C54.927,14.178,52.837,13.162,50.5,13.162z"/>
<path d="M10.5,17.162c-2.611,0-4.827,1.671-5.651,4h-3.79C1.027,21.327,1,21.493,1,21.662h4.349
	c0.825-2.329,3.04-4,5.651-4c1.522,0,2.899,0.579,3.955,1.514C13.858,17.947,12.277,17.162,10.5,17.162z"/>
<path d="M57.807,14.348c0.766,0.822,1.399,1.771,1.855,2.814h-2.075c0.113,0.165,0.233,0.326,0.334,0.5h2.241
	C59.609,16.398,58.801,15.275,57.807,14.348z"/>
<polygon points="36.333,9.329 32.5,13.162 22,13.162 21,13.662 33,13.662 37,9.662 "/>
<path d="M60.371,1l-0.235,0.117C60.37,1.755,60.5,2.442,60.5,3.162c0,3.313-2.687,6-6,6
	c-1.541,0-2.937-0.59-3.998-1.546C51.601,8.867,53.204,9.662,55,9.662c3.313,0,6-2.687,6-6C61,2.704,60.77,1.803,60.371,1z"/>
</g>
<g id="color2" fill="#00FF00">
<polygon points="36,8.662 32,6.662 20,12.662 32,12.662 "/>
<path d="M54,8.662c3.313,0,6-2.687,6-6C60,1.704,59.77,0.803,59.371,0L48.64,5.347
	C49.626,7.311,51.653,8.662,54,8.662z"/>
</g>
<g id="color1" fill="#FF0000">
<path d="M50,10.662l-2-2h-4h-4l-6,6H14c-7.732,0-14,2.687-14,6h4.349c0.825-2.329,3.04-4,5.651-4
	s4.827,1.671,5.651,4H28h4h8h2c0-4.418,3.582-8,8-8c2.959,0,5.537,1.611,6.921,4h2.241C57.618,13.132,54.099,10.662,50,10.662z"/>
</g>
</svg>
