<svg xmlns="http://www.w3.org/2000/svg" viewBox="0 0 64 64">
  <g fill="#00F">
    <path d="M50.5 13.162a8 8 0 00-8 8H16.43c.076.165.16.327.222.5H43a8 8 0 018-8 7.94 7.94 0 015.388 2.115c-1.461-1.599-3.551-2.615-5.888-2.615zM10.5 17.162a5.996 5.996 0 00-5.651 4h-3.79a2.626 2.626 0 00-.059.5h4.349c.825-2.329 3.04-4 5.651-4 1.522 0 2.899.579 3.955 1.514-1.097-1.229-2.678-2.014-4.455-2.014zM57.807 14.348a10.024 10.024 0 011.855 2.814h-2.075c.113.165.233.326.334.5h2.241a10.037 10.037 0 00-2.355-3.314zM36.333 9.329L32.5 13.162H22l-1 .5h12l4-4zM60.371 1l-.235.117a5.92 5.92 0 01.364 2.045 6 6 0 01-6 6 5.95 5.95 0 01-3.998-1.546A5.969 5.969 0 0055 9.662a6 6 0 006-6A5.96 5.96 0 0060.371 1z"/>
  </g>
  <g fill="#0F0">
    <path d="M36 8.662l-4-2-12 6h12zM54 8.662a6 6 0 006-6A5.96 5.96 0 0059.371 0L48.64 5.347A5.995 5.995 0 0054 8.662z"/>
  </g>
  <path d="M50 10.662l-2-2h-8l-6 6H14c-7.732 0-14 2.687-14 6h4.349c.825-2.329 3.04-4 5.651-4s4.827 1.671 5.651 4H42a8 8 0 018-8 7.99 7.99 0 016.921 4h2.241c-1.544-3.53-5.063-6-9.162-6z" fill="red"/>
</svg>
