<svg xmlns="http://www.w3.org/2000/svg" viewBox="-14 -6 64 64">
<g class="icon-chassis icon-col3" fill="#0000FF">
<polygon points="1,2.5 1,3 9,3 8.5,2.5 "/>
<polygon points="36.5,1 36.5,2.5 28.5,2.5 24.5,6.5 24.5,9.5 13,9.5 13,10 25,10 25,7 29,3 37,3 37,1 "/>
<path d="M26.14,43.359c0.226,0.324,0.36,0.716,0.36,1.141v6c0,1.104-0.896,2-2,2h-12
	c-0.424,0-0.816-0.134-1.14-0.359C11.721,52.659,12.32,53,13,53h12c1.104,0,2-0.896,2-2v-6C27,44.32,26.659,43.722,26.14,43.359z"/>
<path d="M26.14,11.359c0.226,0.324,0.36,0.716,0.36,1.141v4c0,1.104-0.896,2-2,2h-12
	c-0.424,0-0.816-0.134-1.14-0.359C11.721,18.659,12.32,19,13,19h12c1.104,0,2-0.896,2-2v-4C27,12.32,26.659,11.722,26.14,11.359z"/>
<polygon points="19.5,54 19.5,54.5 18,54.5 18,55 20,55 20,54 "/>
<polygon points="24.5,34.5 25,34.5 25,25.734 24.5,25.139 "/>
<polygon points="5.564,34.5 12.5,26.233 12.5,25.138 4.645,34.5 "/>
<path d="M35.756,35.365l0.01-0.008L25,22.527V20h-0.5v2.027l10.766,12.83l-0.01,0.008
	c0.146,0.174,0.244,0.39,0.244,0.635c0,0.553-0.448,1-1,1h-10v5H13V42h12v-5h10c0.552,0,1-0.447,1-1
	C36,35.755,35.902,35.539,35.756,35.365z"/>
<path d="M12.5,36.5h-10c-0.146,0-0.283-0.035-0.409-0.092C2.248,36.756,2.594,37,3,37h9.5V36.5z"/>
</g>
<g class="icon-chassis icon-col2" fill="#00FF00">
<path d="M24,10H12c-1.104,0-2,0.896-2,2v4c0,1.104,0.896,2,2,2h12c1.104,0,2-0.896,2-2v-4C26,10.896,25.104,10,24,10
	z"/>
<path d="M24,42H12c-1.104,0-2,0.896-2,2v6c0,1.104,0.896,2,2,2h12c1.104,0,2-0.896,2-2v-6C26,42.896,25.104,42,24,42
	z"/>
</g>
<g class="icon-chassis icon-col1" fill="#FF0000">
<rect x="17" y="53" width="2" height="1"/>
<polygon points="0,0 0,2 8,2 12,6 12,9 24,9 24,6 28,2 36,2 36,0 "/>
<path d="M34.766,34.357L24,21.527V19H12v2.526L1.234,34.356l0.01,0.009C1.098,34.539,1,34.755,1,35
	c0,0.553,0.448,1,1,1h10v5h12v-5h10c0.552,0,1-0.447,1-1c0-0.245-0.098-0.461-0.244-0.635L34.766,34.357z M4.145,34L12,24.638V34
	H4.145z M24,24.639L31.855,34H24V24.639z"/>
</g>
</svg>
