<svg xmlns="http://www.w3.org/2000/svg" viewBox="-12 -6 64 64">
<g class="icon-driver icon-col3" fill="#0000FF">
<path d="M12.519,18.98C11.577,17.921,11,16.529,11,15c0-2.209,1.791-4,4-4h12c0.977,0,1.86,0.364,2.555,0.945
	C28.821,11.069,27.732,10.5,26.5,10.5h-12c-2.209,0-4,1.791-4,4C10.5,16.284,11.283,17.882,12.519,18.98z"/>
<path d="M30.638,4.862C33.025,7.373,34.5,10.761,34.5,14.5c0,7.732-6.268,14-14,14c-3.739,0-7.126-1.475-9.638-3.862
	C13.413,27.319,17.007,29,21,29c7.732,0,14-6.268,14-14C35,11.007,33.319,7.413,30.638,4.862z"/>
<path d="M26.5,32.5h0.429c-0.121-0.469-0.403-0.871-0.789-1.141C26.366,31.684,26.5,32.075,26.5,32.5z"/>
<path d="M38.395,35.104c1.303,1.424,2.105,3.313,2.105,5.396v14h-3.911c-0.038,0.167-0.071,0.335-0.114,0.5H41V41
	C41,38.663,39.992,36.567,38.395,35.104z"/>
<path d="M20.5,34.5c-8.836,0-16,7.163-16,16c0,1.384,0.194,2.72,0.524,4H1V55h4.524C5.194,53.72,5,52.384,5,51
	c0-8.837,7.164-16,16-16c4.291,0,8.178,1.698,11.052,4.448C29.139,36.404,25.045,34.5,20.5,34.5z"/>
<path d="M18.5,51.866v-0.211l-9.237-5.334C8.778,47.624,8.5,49.028,8.5,50.5c0,1.404,0.249,2.749,0.692,4H7.458
	c0.043,0.167,0.081,0.336,0.13,0.5h2.104C9.249,53.749,9,52.404,9,51c0-1.472,0.278-2.876,0.763-4.179L18.5,51.866z"/>
<path d="M21,39c3.16,0,6.027,1.23,8.169,3.227C26.984,39.938,23.915,38.5,20.5,38.5
	c-3.721,0-7.045,1.694-9.247,4.353l0.627,0.362C14.082,40.64,17.347,39,21,39z"/>
<path d="M30.638,40.862c2.388,2.511,3.862,5.898,3.862,9.638c0,1.392-0.21,2.732-0.588,4h-1.45
	c-0.051,0.167-0.096,0.336-0.154,0.5h2.104C34.79,53.732,35,52.392,35,51C35,47.007,33.319,43.413,30.638,40.862z"/>
<path d="M31.737,46.321L22.5,51.655V54.5H19V55h4v-2.845l8.953-5.17C31.884,46.763,31.818,46.539,31.737,46.321z"/>
</g>
<g class="icon-driver icon-col2" fill="#00FF00">
<path d="M32,32h-6c0-1.104-0.896-2-2-2h-8c-1.104,0-2,0.896-2,2H8c-4.418,0-8,3.581-8,8v14h4.524
	C4.194,52.72,4,51.384,4,50c0-8.837,7.164-16,16-16s16,7.163,16,16c0,1.384-0.194,2.72-0.524,4H40V40C40,35.581,36.418,32,32,32z"/>
<path d="M20,36c-7.732,0-14,6.268-14,14c0,1.392,0.21,2.732,0.588,4h2.104C8.249,52.749,8,51.404,8,50
	c0-1.472,0.278-2.876,0.763-4.179L18,51.155V54h4v-2.845l9.237-5.334C31.722,47.125,32,48.528,32,50c0,1.404-0.249,2.749-0.692,4
	h2.104C33.79,52.732,34,51.392,34,50C34,42.268,27.732,36,20,36z M20,47.691l-9.247-5.339C12.955,39.694,16.279,38,20,38
	c3.721,0,7.046,1.694,9.247,4.353L20,47.691z"/>
</g>
<g class="icon-driver icon-col1" fill="#FF0000">
<path d="M20,28c7.732,0,14-6.268,14-14S27.732,0,20,0S6,6.268,6,14S12.268,28,20,28z M14,10h12c2.209,0,4,1.791,4,4
	c0,3.313-2.686,6-6,6h-8c-3.314,0-6-2.687-6-6C10,11.791,11.791,10,14,10z"/>
</g>
</svg>
