<svg xmlns="http://www.w3.org/2000/svg" viewBox="0 0 64 64">
<g class="icon-extra icon-col3" fill="#0000FF">
	<polygon points="39.991,26.378 56.391,27.995 56.847,27.589 39.784,25.907 	"/>
	<polygon points="26.009,26.378 32.859,10.721 32.5,9.9 25.509,25.878 8.153,27.589 8.709,28.084 	"/>
	<polygon points="21.689,39.675 21.179,39.222 17.453,56.211 18.152,55.801 	"/>
	<polygon points="63.434,26.111 62.477,26.017 46.639,40.094 51.309,61.389 32.5,50.366 14.39,60.979 14.191,61.889 
		33,50.866 51.809,61.889 47.139,40.594 	"/>
	<polygon points="18.361,40.094 2.623,26.106 2.566,26.111 18.351,40.14 	"/>
	<polygon points="41.238,23.473 41.532,23.502 33,4 32.859,4.321 	"/>
	<polygon points="38.352,28.768 38.706,28.835 34.673,16.873 34.469,17.248 	"/>
	<polygon points="51.708,31.681 50.772,31.505 40.711,38.985 42.389,51.958 31.723,44.386 20.674,49.625 
		20.404,50.49 32.223,44.886 42.889,52.458 41.211,39.485 	"/>
</g>
<g class="icon-extra icon-col2" fill="#00FF00">
<path d="M62.434,25.111l-21.696-2.139L32,3l-8.738,19.973L1.566,25.111l16.295,14.482l-4.67,21.295L32,49.866
	l18.809,11.022l-4.67-21.295L62.434,25.111z M47.047,55.711L32,46.893l-15.047,8.818l3.736-17.036L7.653,27.089l17.357-1.711L32,9.4
	l6.991,15.978l17.357,1.711L43.311,38.675L47.047,55.711z"/>
</g>
<g class="icon-extra icon-col1" fill="#FF0000">
<polygon points="40.211,38.485 50.708,30.681 37.852,28.268 33.673,15.873 27.406,27.354 14.326,27.498 
	23.309,37.007 19.404,49.49 31.223,43.886 41.889,51.458 "/>
</g>
</svg>
