<svg xmlns="http://www.w3.org/2000/svg" viewBox="-8.792 -8.792 64 64">
<g class="icon-frontstay icon-col3" fill="#0000FF">
<path d="M43.646,39.132c0.097,0.188,0.163,0.397,0.163,0.649c0,0.492-0.174,0.845-0.523,1.057
	c-0.13,0.082-0.287,0.123-0.472,0.123h-6.316v5.506c0,0.24-0.068,0.451-0.205,0.637c-0.267,0.348-0.68,0.522-1.241,0.522
	c-0.343,0-0.613-0.093-0.85-0.229c0.049,0.117,0.118,0.226,0.212,0.319c0.273,0.273,0.653,0.41,1.138,0.41
	c0.561,0,0.974-0.175,1.241-0.522c0.137-0.186,0.205-0.396,0.205-0.637v-5.506h6.316c0.185,0,0.342-0.041,0.472-0.123
	c0.349-0.212,0.523-0.564,0.523-1.057c0-0.402-0.123-0.724-0.369-0.963C43.851,39.234,43.753,39.173,43.646,39.132z"/>
<path d="M44.944,32.827c-0.09-0.09-0.191-0.156-0.303-0.201c0.102,0.192,0.172,0.405,0.172,0.665
	c0,0.52-0.178,0.893-0.533,1.117c-0.144,0.09-0.308,0.134-0.492,0.134h-6.911c-0.253,0-0.379,0.127-0.379,0.38v3.65h0.5v-3.15
	c0-0.253,0.126-0.38,0.379-0.38h6.911c0.185,0,0.349-0.044,0.492-0.134c0.355-0.225,0.533-0.598,0.533-1.117
	C45.313,33.388,45.19,33.066,44.944,32.827z"/>
<path d="M1.788,44.214c-0.391,0.391-0.391,1.023,0,1.414c0.089,0.089,0.193,0.151,0.301,0.2
	c-0.165-0.368-0.103-0.813,0.199-1.114s0.746-0.364,1.114-0.199c-0.048-0.108-0.111-0.212-0.2-0.301
	C2.812,43.823,2.179,43.823,1.788,44.214z"/>
<path d="M46.835,1.581c-0.07-0.069-0.156-0.107-0.232-0.165c0.498,0.773,0.41,1.815-0.267,2.493
	c-0.127,0.127-0.27,0.226-0.418,0.312l0.003,0.006l-13.157,7.597L11.822,32.766L4.228,45.921l-0.007-0.005
	c-0.085,0.149-0.184,0.292-0.311,0.419c-0.678,0.678-1.719,0.766-2.494,0.268c0.057,0.077,0.095,0.163,0.165,0.232
	c0.782,0.781,2.048,0.781,2.829,0c0.127-0.127,0.226-0.27,0.311-0.419l0.007,0.005l7.594-13.155l20.942-20.942l13.157-7.597
	l-0.003-0.006c0.148-0.086,0.291-0.185,0.418-0.312C47.617,3.628,47.616,2.361,46.835,1.581z"/>
<path d="M44.515,3.401c-0.165-0.368-0.102-0.813,0.2-1.113c0.302-0.302,0.746-0.365,1.114-0.2
	c-0.048-0.107-0.111-0.211-0.199-0.3c-0.391-0.392-1.024-0.391-1.415,0c-0.39,0.39-0.391,1.023,0,1.414
	C44.303,3.291,44.407,3.354,44.515,3.401z"/>
</g>
<g class="icon-frontstay icon-col2" fill="#00FF00">
<path d="M43.288,31.561h-8.008c-1.442,0-2.164,0.722-2.164,2.164v12.242c0,0.302,0.099,0.551,0.297,0.749
	c0.273,0.273,0.653,0.41,1.138,0.41c0.561,0,0.974-0.175,1.241-0.522c0.137-0.186,0.205-0.396,0.205-0.637v-5.506h6.316
	c0.185,0,0.342-0.041,0.472-0.123c0.349-0.212,0.523-0.564,0.523-1.057c0-0.402-0.123-0.724-0.369-0.963
	c-0.171-0.164-0.379-0.246-0.625-0.246h-6.316v-3.65c0-0.253,0.126-0.38,0.379-0.38h6.911c0.185,0,0.349-0.044,0.492-0.134
	c0.355-0.225,0.533-0.598,0.533-1.117c0-0.403-0.123-0.725-0.369-0.964C43.766,31.649,43.547,31.561,43.288,31.561z"/>

</g>
<g class="icon-frontstay icon-col1" fill="#FF0000"><path d="M43.425,0.27l-0.003-0.006L29.81,8.121l-3.772,3.773l-5.657,5.656l-2.828,2.829l-5.657,5.656l-3.772,3.772
	L0.264,43.421l0.006,0.003c-0.442,0.766-0.344,1.757,0.31,2.411c0.782,0.781,2.048,0.781,2.829,0
	c0.127-0.127,0.226-0.27,0.311-0.419l0.007,0.005l7.594-13.155l20.942-20.942l13.157-7.597l-0.003-0.006
	c0.148-0.086,0.291-0.185,0.418-0.312c0.781-0.781,0.78-2.048,0-2.828C45.182-0.073,44.189-0.172,43.425,0.27z M2.703,45.128
	c-0.391,0.391-1.023,0.392-1.415,0c-0.391-0.391-0.391-1.023,0-1.414s1.023-0.391,1.415,0C3.093,44.104,3.093,44.738,2.703,45.128z
	 M45.129,2.702c-0.391,0.391-1.023,0.391-1.415,0c-0.391-0.391-0.39-1.024,0-1.414c0.391-0.391,1.023-0.392,1.415,0
	C45.52,1.679,45.52,2.312,45.129,2.702z"/>
</g>
</svg>
