<svg xmlns="http://www.w3.org/2000/svg" viewBox="-8.164 -10 64 64">
<g class="icon-gear icon-col3" fill="#0000FF">
<path d="M13.782,19.555C13.2,18.859,12.836,17.977,12.836,17c0-2.209,1.791-4,4-4c0.977,0,1.86,0.364,2.555,0.945
	c-0.734-0.876-1.822-1.445-3.055-1.445c-2.209,0-4,1.791-4,4C12.336,17.732,12.906,18.82,13.782,19.555z"/>
<path d="M20.817,12.52c0.942,1.06,1.52,2.451,1.52,3.98c0,3.313-2.687,6-6,6c-1.529,0-2.921-0.577-3.98-1.52
	c1.099,1.236,2.696,2.02,4.48,2.02c3.313,0,6-2.687,6-6C22.836,15.216,22.053,13.618,20.817,12.52z"/>
<path d="M10.941,22.395C9.638,20.972,8.836,19.082,8.836,17c0-4.418,3.582-8,8-8c2.082,0,3.972,0.802,5.395,2.105
	C20.769,9.508,18.673,8.5,16.336,8.5c-4.418,0-8,3.582-8,8C8.336,18.836,9.344,20.933,10.941,22.395z"/>
<path d="M21.25,3.404c0.149,0.056,0.295,0.12,0.442,0.18l-0.349-1.937L21,2.017L21.25,3.404z"/>
<path d="M2.385,15.53l-1.236-0.857L1,14.723l1.378,0.956C2.381,15.629,2.382,15.579,2.385,15.53z"/>
<path d="M31.849,14.448l-1.561,1.083c0.022,0.321,0.049,0.642,0.049,0.969s-0.027,0.646-0.049,0.968l0.507,0.352
	c0.02-0.271,0.042-0.542,0.042-0.819c0-0.327-0.027-0.647-0.049-0.969l1.886-1.309L31.849,14.448z"/>
<path d="M17.362,2.552c0.089,0.007,0.175,0.02,0.264,0.027L16.836,1l-0.125,0.25L17.362,2.552z"/>
<path d="M24.74,5.321c0.174,0.131,0.341,0.27,0.51,0.406l0.236-2.188l-0.592,0.352L24.74,5.321z"/>
<path d="M30.512,10.321l-1.061,1.316c0.224,0.604,0.416,1.224,0.556,1.864l0.405,0.135
	c-0.128-0.511-0.28-1.012-0.46-1.499l1.439-1.785L30.512,10.321z"/>
<path d="M28.137,6.724l-0.588,1.418c0.388,0.52,0.751,1.059,1.065,1.631l0.202,0.007
	c-0.24-0.39-0.494-0.771-0.767-1.138l0.879-2.12L28.137,6.724z"/>
<path d="M7.933,27.678c-0.52-0.392-1.021-0.807-1.481-1.266l-1.415,0.362l-0.292,0.702l2.207-0.564
	c0.307,0.306,0.635,0.587,0.971,0.859L7.933,27.678z"/>
<path d="M13.382,2.818c0.01-0.002,0.02-0.003,0.03-0.005l-1.083-1.165L12.323,1.68L13.382,2.818z"/>
<path d="M32.674,19.276l-0.649-0.45l-2.018,0.67c-0.14,0.641-0.332,1.261-0.556,1.865l1.439,1.785l-2.277,0.08
	c-0.313,0.571-0.677,1.11-1.064,1.631l0.879,2.12l-2.208-0.564c-0.459,0.458-0.96,0.873-1.48,1.265l0.247,2.282l-1.957-1.162
	c-0.568,0.31-1.167,0.567-1.78,0.798l-0.4,2.225l0.494,0.531l0.406-2.256c0.613-0.23,1.212-0.488,1.78-0.798l1.957,1.162
	l-0.247-2.282c0.52-0.392,1.021-0.807,1.48-1.265l2.208,0.564l-0.879-2.12c0.388-0.521,0.751-1.06,1.064-1.631l2.277-0.08
	l-1.439-1.785c0.224-0.604,0.416-1.225,0.556-1.865L32.674,19.276z"/>
<path d="M15.311,30.448c-0.656-0.048-1.301-0.132-1.929-0.268l-1.209,1.301l0.156,0.869l1.553-1.67
	c0.543,0.117,1.101,0.19,1.666,0.24L15.311,30.448z"/>
<path d="M19.291,30.182c-0.627,0.135-1.272,0.219-1.928,0.267l-0.901,1.802L16.836,33l1.026-2.052
	c0.646-0.047,1.28-0.13,1.898-0.262L19.291,30.182z"/>
<path d="M2.666,19.496l-1.34-0.445L1,19.276l1.761,0.585C2.73,19.739,2.693,19.62,2.666,19.496z"/>
<path d="M11.423,29.596c-0.613-0.23-1.212-0.488-1.781-0.799l-1.363,0.811l-0.092,0.852l1.956-1.162
	c0.43,0.234,0.881,0.434,1.339,0.618L11.423,29.596z"/>
<path d="M4.058,23.226l-1.397-0.049l-0.378,0.469l2.074,0.073C4.255,23.555,4.151,23.395,4.058,23.226z"/>
<path d="M37.196,36.141c-0.226-0.324-0.36-0.716-0.36-1.141c0-1.104,0.896-2,2-2c0.424,0,0.816,0.134,1.14,0.359
	c-0.361-0.519-0.96-0.859-1.64-0.859c-1.104,0-2,0.896-2,2C36.336,35.18,36.678,35.778,37.196,36.141z"/>
<path d="M41.391,31.945c0.582,0.695,0.945,1.578,0.945,2.555c0,2.209-1.791,4-4,4c-0.977,0-1.86-0.364-2.555-0.945
	C36.516,38.431,37.604,39,38.836,39c2.209,0,4-1.791,4-4C42.836,33.768,42.267,32.68,41.391,31.945z"/>
<path d="M28.356,34.108l-1.248-0.866l-0.149,0.05l1.39,0.965C28.352,34.207,28.354,34.158,28.356,34.108z"/>
<path d="M42.124,25.247c0.153,0.063,0.299,0.137,0.447,0.208l-0.354-1.969l-0.343,0.369L42.124,25.247z"/>
<path d="M34.356,38.98c-0.942-1.06-1.52-2.451-1.52-3.98c0-3.313,2.687-6,6-6c1.529,0,2.921,0.577,3.98,1.52
	c-1.099-1.236-2.696-2.02-4.48-2.02c-3.313,0-6,2.687-6,6C32.336,36.284,33.12,37.882,34.356,38.98z"/>
<path d="M44.577,26.693c0.175,0.14,0.341,0.291,0.506,0.443l0.24-2.231l-0.592,0.352L44.577,26.693z"/>
<path d="M49.889,33.018l-1.572,1.091c0.005,0.131,0.02,0.26,0.02,0.392s-0.015,0.261-0.02,0.392l0.507,0.352
	c0.005-0.08,0.012-0.161,0.012-0.243c0-0.132-0.015-0.261-0.02-0.392l1.897-1.316L49.889,33.018z"/>
<path d="M39.363,24.552c0.091,0.01,0.18,0.028,0.271,0.041L38.836,23l-0.125,0.25L39.363,24.552z"/>
<path d="M47.114,27.344l-0.591,1.425c0.151,0.215,0.29,0.438,0.424,0.664l0.185,0.007
	c-0.037-0.057-0.07-0.115-0.109-0.171l0.882-2.127L47.114,27.344z"/>
<path d="M48.874,29.983l-1.067,1.323c0.083,0.248,0.154,0.501,0.218,0.758l0.394,0.131
	c-0.037-0.13-0.069-0.262-0.112-0.389l1.445-1.792L48.874,29.983z"/>
<path d="M37.31,44.448c-0.266-0.027-0.526-0.073-0.786-0.12l-1.225,1.316l0.156,0.869l1.568-1.686
	c0.17,0.03,0.343,0.054,0.516,0.079L37.31,44.448z"/>
<path d="M36.524,24.672c0.01-0.002,0.021-0.003,0.03-0.005l-1.099-1.181l-0.006,0.031L36.524,24.672z"/>
<path d="M34.548,43.752c-0.246-0.101-0.483-0.215-0.719-0.334l-1.389,0.825l-0.092,0.852l1.981-1.177
	c0.089,0.045,0.182,0.083,0.271,0.126L34.548,43.752z"/>
<path d="M50.714,36.708l-0.649-0.45l-2.04,0.678c-0.064,0.257-0.135,0.51-0.218,0.758l1.445,1.792l-2.305,0.082
	c-0.134,0.227-0.273,0.449-0.424,0.664l0.882,2.127l-2.235-0.571c-0.191,0.18-0.387,0.354-0.593,0.52l0.247,2.288l-1.981-1.177
	c-0.235,0.12-0.474,0.234-0.719,0.335l-0.401,2.229l0.494,0.531l0.407-2.261c0.245-0.101,0.483-0.215,0.719-0.335l1.981,1.177
	l-0.247-2.288c0.206-0.165,0.401-0.34,0.593-0.52l2.235,0.571l-0.882-2.127c0.151-0.215,0.29-0.438,0.424-0.664l2.305-0.082
	l-1.445-1.792c0.083-0.248,0.154-0.501,0.218-0.758L50.714,36.708z"/>
<path d="M40.149,44.328c-0.259,0.047-0.52,0.093-0.786,0.12l-0.901,1.802L38.836,47l1.026-2.052
	c0.256-0.026,0.506-0.07,0.756-0.115L40.149,44.328z"/>
<path d="M28.648,36.936l-1.364-0.453l-0.325,0.226l1.796,0.597C28.719,37.182,28.679,37.061,28.648,36.936z"/>
<path d="M32.089,42.362l0.006-0.056c-0.205-0.165-0.401-0.34-0.592-0.52l-1.444,0.369l-0.291,0.702l2.235-0.571
	C32.031,42.313,32.061,42.337,32.089,42.362z"/>
<path d="M29.726,39.567l-1.427-0.051l-0.378,0.469l2.119,0.075C29.932,39.898,29.825,39.735,29.726,39.567z"/>
</g>
<g class="icon-gear icon-col2" fill="#00FF00">
<path d="M37.836,30c-2.209,0-4,1.791-4,4s1.791,4,4,4s4-1.791,4-4S40.045,30,37.836,30z M37.836,36
	c-1.104,0-2-0.896-2-2s0.896-2,2-2s2,0.896,2,2S38.941,36,37.836,36z"/>
<path d="M49.714,35.708l-1.897-1.316c0.005-0.131,0.02-0.26,0.02-0.392s-0.015-0.261-0.02-0.392l1.897-1.316
	l-2.189-0.728c-0.064-0.257-0.135-0.51-0.218-0.758l1.445-1.792l-2.305-0.082c-0.134-0.227-0.273-0.449-0.424-0.664l0.882-2.127
	l-2.235,0.571c-0.192-0.18-0.387-0.355-0.593-0.52l0.247-2.288l-1.981,1.176c-0.235-0.119-0.473-0.233-0.719-0.334l-0.407-2.261
	l-1.568,1.686c-0.259-0.047-0.52-0.093-0.786-0.12L37.836,22l-1.026,2.052c-0.266,0.027-0.526,0.073-0.786,0.12l-1.568-1.686
	l-0.407,2.261c-0.246,0.101-0.484,0.215-0.719,0.335l-1.981-1.177l0.247,2.288c-0.206,0.165-0.401,0.34-0.593,0.52l-2.235-0.571
	l0.882,2.127c-0.151,0.215-0.29,0.438-0.424,0.664l-2.305,0.082l1.445,1.792c-0.083,0.248-0.154,0.501-0.218,0.758l-2.189,0.728
	l1.897,1.316c-0.005,0.131-0.02,0.26-0.02,0.392s0.015,0.26,0.02,0.391l-1.897,1.317l2.189,0.728
	c0.064,0.257,0.135,0.51,0.218,0.757l-1.445,1.793l2.305,0.082c0.134,0.227,0.273,0.449,0.423,0.664l-0.881,2.127l2.235-0.571
	c0.191,0.18,0.387,0.354,0.592,0.52l-0.247,2.288l1.981-1.177c0.235,0.119,0.473,0.233,0.719,0.334l0.407,2.262l1.568-1.686
	c0.26,0.047,0.52,0.093,0.786,0.12L37.836,46l1.026-2.052c0.266-0.027,0.527-0.073,0.786-0.12l1.568,1.686l0.407-2.261
	c0.245-0.101,0.483-0.215,0.719-0.335l1.981,1.177l-0.247-2.288c0.206-0.165,0.401-0.34,0.593-0.52l2.235,0.571l-0.882-2.127
	c0.151-0.215,0.29-0.438,0.424-0.664l2.305-0.082l-1.445-1.792c0.083-0.248,0.154-0.501,0.218-0.758L49.714,35.708z M37.836,40
	c-3.313,0-6-2.687-6-6s2.687-6,6-6s6,2.687,6,6S41.15,40,37.836,40z"/>
</g>
<g class="icon-gear icon-col1" fill="#FF0000">
<path d="M15.836,10c-3.313,0-6,2.687-6,6s2.687,6,6,6s6-2.687,6-6S19.15,10,15.836,10z M15.836,20
	c-2.209,0-4-1.791-4-4s1.791-4,4-4s4,1.791,4,4S18.045,20,15.836,20z"/>
<path d="M27.929,26.478l-0.879-2.12c0.388-0.521,0.751-1.06,1.064-1.631l2.277-0.08l-1.439-1.785
	c0.224-0.604,0.416-1.225,0.556-1.865l2.167-0.72l-1.886-1.309c0.022-0.321,0.049-0.641,0.049-0.968s-0.027-0.647-0.049-0.969
	l1.886-1.309l-2.167-0.721c-0.14-0.641-0.332-1.26-0.556-1.864l1.439-1.785l-2.277-0.08C27.8,8.7,27.437,8.161,27.049,7.642
	l0.879-2.12L25.72,6.086c-0.46-0.458-0.96-0.873-1.48-1.265l0.247-2.282l-1.958,1.162c-0.568-0.31-1.167-0.567-1.779-0.797
	l-0.406-2.257l-1.555,1.671c-0.627-0.135-1.271-0.219-1.927-0.267L15.836,0l-1.026,2.052C14.155,2.1,13.51,2.184,12.882,2.318
	l-1.554-1.67l-0.406,2.256c-0.613,0.229-1.212,0.487-1.78,0.798L7.186,2.54l0.247,2.281c-0.52,0.392-1.021,0.807-1.481,1.266
	L3.745,5.522l0.879,2.119c-0.388,0.521-0.751,1.06-1.065,1.632l-2.275,0.08l1.439,1.784c-0.224,0.604-0.416,1.225-0.556,1.865
	L0,13.723l1.885,1.308C1.863,15.353,1.836,15.673,1.836,16s0.027,0.647,0.049,0.969L0,18.276l2.166,0.72
	c0.14,0.641,0.332,1.261,0.556,1.866l-1.439,1.783l2.275,0.08c0.314,0.572,0.678,1.111,1.066,1.632l-0.879,2.119l2.207-0.564
	c0.46,0.459,0.961,0.874,1.481,1.266l-0.247,2.281l1.956-1.162c0.569,0.311,1.168,0.568,1.781,0.799l0.405,2.255l1.553-1.67
	c0.628,0.136,1.273,0.22,1.929,0.268L15.836,32l1.026-2.052c0.656-0.048,1.301-0.132,1.928-0.267l1.554,1.67l0.406-2.256
	c0.613-0.23,1.212-0.488,1.78-0.798l1.957,1.162l-0.247-2.282c0.52-0.392,1.021-0.807,1.48-1.265L27.929,26.478z M15.836,24
	c-4.418,0-8-3.582-8-8s3.582-8,8-8s8,3.582,8,8S20.255,24,15.836,24z"/>
</g>
</svg>
