<svg xmlns="http://www.w3.org/2000/svg" viewBox="-4 -16 64 64">
<g class="icon-motor icon-col3" fill="#0000FF">
<path d="M12.5,20.5c-0.424,0-0.816-0.134-1.14-0.359c0.269,0.386,0.672,0.667,1.14,0.789V20.5z"/>
<path d="M10.5,18.5H1V19h9.571C10.529,18.839,10.5,18.674,10.5,18.5z"/>
<path d="M44.5,1v31.5h-28c-0.977,0-1.86-0.364-2.555-0.945C14.679,32.431,15.768,33,17,33h28V1H44.5z"/>
<path d="M54.5,4.5v4H55V5c0-1.232-0.569-2.32-1.445-3.055C54.136,2.641,54.5,3.523,54.5,4.5z"/>
<path d="M58.14,9.359c0.226,0.324,0.36,0.716,0.36,1.141v12c0,1.104-0.896,2-2,2h-2v4c0,2.209-1.791,4-4,4H47V33h4
	c2.209,0,4-1.791,4-4v-4h2c1.104,0,2-0.896,2-2V11C59,10.32,58.659,9.722,58.14,9.359z"/>
</g>
<g class="icon-motor icon-col2" fill="#00FF00">
<path d="M56,8h-2V4c0-2.209-1.791-4-4-4h-4v32h4c2.209,0,4-1.791,4-4v-4h2c1.104,0,2-0.896,2-2V10
	C58,8.896,57.104,8,56,8z"/>
</g>
<g class="icon-motor icon-col1" fill="#FF0000">
<path d="M12,4v8c-1.104,0-2,0.896-2,2H0v4h10c0,1.104,0.896,2,2,2v8c0,2.209,1.791,4,4,4h28V0H16
	C13.791,0,12,1.791,12,4z"/>
</g>
</svg>
