<svg xmlns="http://www.w3.org/2000/svg" viewBox="0 0 64 64">
  <g fill="#00F">
    <path d="M12.5 20.5c-.424 0-.816-.134-1.14-.359.269.386.672.667 1.14.789v-.43zM10.5 18.5H1v.5h9.571a1.966 1.966 0 01-.071-.5zM44.5 1v31.5h-28c-.977 0-1.86-.364-2.555-.945A3.976 3.976 0 0017 33h28V1h-.5zM54.5 4.5v4h.5V5c0-1.232-.569-2.32-1.445-3.055A3.97 3.97 0 0154.5 4.5zM58.14 9.359c.226.324.36.716.36 1.141v12a2 2 0 01-2 2h-2v4a4 4 0 01-4 4H47v.5h4a4 4 0 004-4v-4h2a2 2 0 002-2V11c0-.68-.341-1.278-.86-1.641z"/>
    <path d="M56 8h-2V4a4 4 0 00-4-4h-4v32h4a4 4 0 004-4v-4h2a2 2 0 002-2V10a2 2 0 00-2-2z"/>
  </g>
  <path d="M12 4v8a2 2 0 00-2 2H0v4h10a2 2 0 002 2v8a4 4 0 004 4h28V0H16a4 4 0 00-4 4z" fill="red"/>
</svg>
