<svg xmlns="http://www.w3.org/2000/svg" viewBox="-8.787 -8.786 64 64">
<g id="color3" fill="#0000FF">
<path d="M14.521,11.692c-0.391,0.391-0.391,1.023,0,1.414c0.089,0.089,0.192,0.151,0.301,0.2
	c-0.166-0.368-0.103-0.813,0.199-1.114c0.301-0.302,0.746-0.364,1.113-0.2c-0.049-0.107-0.111-0.211-0.199-0.3
	C15.544,11.302,14.911,11.302,14.521,11.692z"/>
<path d="M1.793,44.22c-0.391,0.391-0.391,1.023,0,1.414c0.088,0.089,0.192,0.151,0.3,0.199
	c-0.165-0.367-0.102-0.812,0.2-1.113c0.302-0.302,0.746-0.364,1.114-0.199c-0.048-0.108-0.111-0.212-0.2-0.301
	C2.816,43.829,2.184,43.829,1.793,44.22z"/>
<polygon points="12.071,22.214 22.214,12.071 32.527,12.071 33.027,11.571 21.714,11.571 11.571,21.714 
	11.571,33.027 12.071,32.527 "/>
<path d="M46.84,1.587c-0.085-0.086-0.179-0.158-0.275-0.226c0.543,0.779,0.471,1.858-0.224,2.553L3.915,46.341
	c-0.696,0.695-1.774,0.768-2.555,0.225c0.067,0.096,0.14,0.189,0.225,0.275c0.782,0.781,2.048,0.781,2.83,0L46.841,4.414
	C47.622,3.634,47.621,2.366,46.84,1.587z"/>
<rect x="14.771" y="6.468" width="0" height="5.293"/>
<path d="M44.52,3.407c-0.165-0.368-0.103-0.813,0.199-1.114c0.302-0.302,0.746-0.364,1.114-0.199
	c-0.048-0.108-0.111-0.212-0.2-0.301c-0.391-0.391-1.023-0.391-1.414,0s-0.391,1.023,0,1.414C44.308,3.296,44.412,3.358,44.52,3.407
	z"/>
<path d="M46.997,46.51l-4.102-4.984c2.522-0.43,3.784-1.797,3.784-4.102c0-0.956-0.277-1.79-0.831-2.502
	c-0.198-0.257-0.425-0.479-0.671-0.68c0.055,0.063,0.12,0.113,0.171,0.18c0.554,0.712,0.831,1.546,0.831,2.502
	c0,2.305-1.261,3.672-3.784,4.102l4.102,4.984c0.185,0.225,0.277,0.481,0.277,0.769c0,0.479-0.212,0.838-0.636,1.077
	c-0.314,0.178-0.646,0.266-0.995,0.266c-0.342,0-0.639-0.102-0.902-0.281l0.039,0.054c0.349,0.485,0.803,0.728,1.364,0.728
	c0.349,0,0.68-0.088,0.995-0.266c0.424-0.239,0.636-0.599,0.636-1.077C47.274,46.991,47.182,46.734,46.997,46.51z"/>
<path d="M37.481,35.835c0-0.28,0.14-0.421,0.42-0.421h2.646c0.993,0,1.739,0.166,2.247,0.493
	c-0.432-0.656-1.339-0.993-2.747-0.993h-2.646c-0.28,0-0.42,0.141-0.42,0.421v3.743h0.5V35.835z"/>
<path d="M39.504,41.385h-2.522v5.568c0,0.328-0.113,0.594-0.338,0.799c-0.28,0.254-0.646,0.38-1.097,0.38
	c-0.316,0-0.58-0.062-0.798-0.177c0.014,0.026,0.021,0.057,0.037,0.082c0.253,0.396,0.673,0.595,1.261,0.595
	c0.451,0,0.817-0.126,1.097-0.38c0.226-0.205,0.338-0.471,0.338-0.799v-5.568h2.378L39.504,41.385z"/>
</g>
<g id="color2" fill="#00FF00">
<path d="M41.896,40.525c2.522-0.43,3.784-1.797,3.784-4.102c0-0.956-0.277-1.79-0.831-2.502
	c-0.362-0.471-0.807-0.847-1.333-1.127c-0.923-0.485-2.126-0.729-3.609-0.729h-3.743c-1.695,0-2.543,0.848-2.543,2.543v11.844
	c0,0.225,0.055,0.42,0.164,0.584c0.253,0.396,0.673,0.595,1.261,0.595c0.451,0,0.817-0.126,1.097-0.38
	c0.226-0.205,0.338-0.471,0.338-0.799v-5.568h2.522l4.276,6.009c0.349,0.485,0.803,0.728,1.364,0.728
	c0.349,0,0.68-0.088,0.995-0.266c0.424-0.239,0.636-0.599,0.636-1.077c0-0.287-0.092-0.544-0.277-0.769L41.896,40.525z
	 M36.481,38.578v-3.743c0-0.28,0.14-0.421,0.42-0.421h2.646c2.03,0,3.045,0.685,3.045,2.051c0,1.409-1.049,2.113-3.148,2.113H36.481
	z"/>
</g>
<g id="color1" fill="#FF0000">
<path d="M45.84,0.587c-0.781-0.782-2.047-0.782-2.829,0l-6.627,6.628V7.071H20.389
	c-0.513-0.001-1.027,0.194-1.418,0.586h0l-2.829,2.829l-4.242-4.243L9.071,9.071l4.243,4.243l-5.657,5.657
	c-0.392,0.392-0.587,0.905-0.585,1.419l0,15.994h0.143l-6.628,6.628c-0.781,0.781-0.781,2.048-0.001,2.828
	c0.782,0.781,2.048,0.781,2.83,0L45.841,3.414C46.622,2.634,46.621,1.366,45.84,0.587z M2.707,45.134
	c-0.391,0.391-1.023,0.391-1.414,0c-0.391-0.391-0.391-1.023,0-1.414s1.023-0.391,1.414,0C3.098,44.11,3.098,44.743,2.707,45.134z
	 M14.021,11.192c0.39-0.391,1.023-0.391,1.414,0c0.391,0.392,0.391,1.024,0,1.414c-0.391,0.391-1.023,0.392-1.414,0
	C13.63,12.216,13.63,11.583,14.021,11.192z M11.071,32.527V21.214l10.143-10.143h11.313L11.071,32.527z M45.133,2.707
	c-0.39,0.391-1.023,0.392-1.414,0c-0.391-0.391-0.391-1.023,0-1.414s1.023-0.391,1.414,0C45.524,1.684,45.524,2.317,45.133,2.707z"
	/>
</g>
</svg>
