<svg xmlns="http://www.w3.org/2000/svg" viewBox="0 0 64 64">
  <g fill="#00F">
    <path d="M14.521 11.692a.999.999 0 000 1.414.989.989 0 00.301.2.992.992 0 01.199-1.114.994.994 0 011.113-.2 1.025 1.025 0 00-.199-.3 1 1 0 00-1.414 0zM1.793 44.22a.999.999 0 000 1.414.964.964 0 00.3.199.993.993 0 01.2-1.113.994.994 0 011.114-.199.983.983 0 00-.2-.301.999.999 0 00-1.414 0zM12.071 22.214l10.143-10.143h10.313l.5-.5H21.714L11.571 21.714v11.313l.5-.5z"/>
    <path d="M46.84 1.587a2.026 2.026 0 00-.275-.226 1.997 1.997 0 01-.224 2.553L3.915 46.341a2 2 0 01-2.555.225c.067.096.14.189.225.275a2.002 2.002 0 002.83 0L46.841 4.414c.781-.78.78-2.048-.001-2.827z"/>
    <path d="M44.52 3.407a.994.994 0 01.199-1.114.994.994 0 011.114-.199.983.983 0 00-.2-.301.999.999 0 10-1.414 1.414c.089.089.193.151.301.2zM46.997 46.51l-4.102-4.984c2.522-.43 3.784-1.797 3.784-4.102 0-.956-.277-1.79-.831-2.502a4.153 4.153 0 00-.671-.68c.055.063.12.113.171.18.554.712.831 1.546.831 2.502 0 2.305-1.261 3.672-3.784 4.102l4.102 4.984c.185.225.277.481.277.769 0 .479-.212.838-.636 1.077a1.987 1.987 0 01-.995.266c-.342 0-.639-.102-.902-.281l.039.054c.349.485.803.728 1.364.728.349 0 .68-.088.995-.266.424-.239.636-.599.636-1.077a1.181 1.181 0 00-.278-.77zM37.481 35.835c0-.28.14-.421.42-.421h2.646c.993 0 1.739.166 2.247.493-.432-.656-1.339-.993-2.747-.993h-2.646c-.28 0-.42.141-.42.421v3.743h.5v-3.243zM39.504 41.385h-2.522v5.568c0 .328-.113.594-.338.799-.28.254-.646.38-1.097.38-.316 0-.58-.062-.798-.177.014.026.021.057.037.082.253.396.673.595 1.261.595.451 0 .817-.126 1.097-.38.226-.205.338-.471.338-.799v-5.568h2.378l-.356-.5z"/>
  </g>
  <path d="M41.896 40.525c2.522-.43 3.784-1.797 3.784-4.102 0-.956-.277-1.79-.831-2.502a4.082 4.082 0 00-1.333-1.127c-.923-.485-2.126-.729-3.609-.729h-3.743c-1.695 0-2.543.848-2.543 2.543v11.844c0 .225.055.42.164.584.253.396.673.595 1.261.595.451 0 .817-.126 1.097-.38.226-.205.338-.471.338-.799v-5.568h2.522l4.276 6.009c.349.485.803.728 1.364.728.349 0 .68-.088.995-.266.424-.239.636-.599.636-1.077 0-.287-.092-.544-.277-.769l-4.101-4.984zm-5.415-1.947v-3.743c0-.28.14-.421.42-.421h2.646c2.03 0 3.045.685 3.045 2.051 0 1.409-1.049 2.113-3.148 2.113h-2.963z" fill="#0F0"/>
  <path d="M45.84.587a1.999 1.999 0 00-2.829 0l-6.627 6.628v-.144H20.389a1.991 1.991 0 00-1.418.586l-2.829 2.829L11.9 6.243 9.071 9.071l4.243 4.243-5.657 5.657a1.988 1.988 0 00-.585 1.419v15.994h.143L.587 43.012a2 2 0 102.829 2.828L45.841 3.414c.781-.78.78-2.048-.001-2.827zM2.707 45.134a.999.999 0 11-1.414-1.414.999.999 0 111.414 1.414zm11.314-33.942a.999.999 0 111.414 1.414.999.999 0 11-1.414-1.414zm-2.95 21.335V21.214l10.143-10.143h11.313L11.071 32.527zm34.062-29.82a.999.999 0 110-1.414.999.999 0 010 1.414z" fill="red"/>
</svg>
