<svg xmlns="http://www.w3.org/2000/svg" viewBox="-4 -18 64 64">
<g class="icon-roller icon-col3" fill="#0000FF">
<path d="M28.5,12.5c-2.209,0-4,0.896-4,2c0,0.429,0.275,0.823,0.734,1.149C25.093,15.444,25,15.229,25,15
	c0-1.104,1.791-2,4-2c1.352,0,2.542,0.338,3.266,0.851C31.725,13.067,30.252,12.5,28.5,12.5z"/>
<path d="M53.831,8.531C55.54,10.343,56.5,12.364,56.5,14.5c0,7.732-12.536,14-28,14
	c-10.795,0-20.158-3.057-24.831-7.531C8.151,25.715,17.807,29,29,29c15.464,0,28-6.268,28-14C57,12.666,55.851,10.467,53.831,8.531z
	"/>
<path d="M46.167,8.92l-9.998,8.659c0.273,0.079,0.551,0.148,0.832,0.213l9.667-8.372
	c1.583,0.457,2.812,1.1,3.661,1.839C49.505,10.31,48.098,9.478,46.167,8.92z"/>
<path d="M31,3.835c-4.783-1.381-10.899-0.562-13.661,1.83l0.835,0.241c2.895-2.187,8.723-2.9,13.326-1.571
	c1.582,0.457,2.811,1.1,3.66,1.838C34.336,5.224,32.929,4.392,31,3.835z"/>
<path d="M22.34,23.327c-1.218-1.404-1.147-3.066,0.5-4.492l16.485,4.759c0.113-0.085,0.231-0.169,0.335-0.259
	l-17.32-5C20.493,19.935,20.624,21.832,22.34,23.327z"/>
<path d="M7.169,18.242c-1.218-1.404-1.147-3.065,0.5-4.492c2.604-2.255,8.189-3.11,12.829-2.043l0.332-0.287
	c-4.783-1.381-10.899-0.562-13.66,1.83C5.322,14.851,5.453,16.747,7.169,18.242z"/>
</g>
<g class="icon-roller icon-col2" fill="#00FF00">
</g>
<g class="icon-roller icon-col1" fill="#FF0000">
<path d="M28,0C12.536,0,0,6.268,0,14s12.536,14,28,14s28-6.268,28-14S43.464,0,28,0z M30.5,3.335
	c4.782,1.381,6.42,4.438,3.66,6.83l-17.32-5C19.601,2.773,25.717,1.954,30.5,3.335z M32,14c0,1.104-1.791,2-4,2s-4-0.896-4-2
	s1.791-2,4-2S32,12.896,32,14z M10.33,19.581c-4.783-1.382-6.422-4.439-3.66-6.831c2.761-2.392,8.877-3.211,13.66-1.83L10.33,19.581
	z M25.5,24.665c-4.783-1.381-6.421-4.439-3.66-6.83l17.32,5C36.4,25.226,30.283,26.046,25.5,24.665z M49.329,15.249
	c-2.762,2.391-8.877,3.211-13.659,1.83l9.998-8.659C50.45,9.801,52.089,12.858,49.329,15.249z"/>
</g>
</svg>
