<svg xmlns="http://www.w3.org/2000/svg" viewBox="0 0 64 64">
  <g fill="#00F">
    <path d="M28.5 12.5c-2.209 0-4 .896-4 2 0 .429.275.823.734 1.149-.141-.205-.234-.42-.234-.649 0-1.104 1.791-2 4-2 1.352 0 2.542.338 3.266.851-.541-.784-2.014-1.351-3.766-1.351z"/>
    <path d="M53.831 8.531C55.54 10.343 56.5 12.364 56.5 14.5c0 7.732-12.536 14-28 14-10.795 0-20.158-3.057-24.831-7.531C8.151 25.715 17.807 29 29 29c15.464 0 28-6.268 28-14 0-2.334-1.149-4.533-3.169-6.469z"/>
    <path d="M46.167 8.92l-9.998 8.659c.273.079.551.148.832.213l9.667-8.372c1.583.457 2.812 1.1 3.661 1.839-.824-.949-2.231-1.781-4.162-2.339zM31 3.835c-4.783-1.381-10.899-.562-13.661 1.83l.835.241c2.895-2.187 8.723-2.9 13.326-1.571 1.582.457 2.811 1.1 3.66 1.838-.824-.949-2.231-1.781-4.16-2.338zM22.34 23.327c-1.218-1.404-1.147-3.066.5-4.492l16.485 4.759c.113-.085.231-.169.335-.259l-17.32-5c-1.847 1.6-1.716 3.497 0 4.992zM7.169 18.242c-1.218-1.404-1.147-3.065.5-4.492 2.604-2.255 8.189-3.11 12.829-2.043l.332-.287c-4.783-1.381-10.899-.562-13.66 1.83-1.848 1.601-1.717 3.497-.001 4.992z"/>
  </g>
  <path d="M28 0C12.536 0 0 6.268 0 14s12.536 14 28 14 28-6.268 28-14S43.464 0 28 0zm2.5 3.335c4.782 1.381 6.42 4.438 3.66 6.83l-17.32-5c2.761-2.392 8.877-3.211 13.66-1.83zM32 14c0 1.104-1.791 2-4 2s-4-.896-4-2 1.791-2 4-2 4 .896 4 2zm-21.67 5.581c-4.783-1.382-6.422-4.439-3.66-6.831 2.761-2.392 8.877-3.211 13.66-1.83l-10 8.661zm15.17 5.084c-4.783-1.381-6.421-4.439-3.66-6.83l17.32 5c-2.76 2.391-8.877 3.211-13.66 1.83zm23.829-9.416c-2.762 2.391-8.877 3.211-13.659 1.83l9.998-8.659c4.782 1.381 6.421 4.438 3.661 6.829z" fill="red"/>
</svg>
