<svg xmlns="http://www.w3.org/2000/svg" viewBox="0 0 64 64">
<g class="icon-roller icon-col3" fill="#0000FF">
<path d="M9.472,38.535C7.889,36.855,7,34.98,7,33c0-7.181,11.642-13,26-13c10.001,0,18.679,2.825,23.028,6.965
	C51.869,22.554,42.899,19.5,32.5,19.5c-14.358,0-26,5.819-26,13C6.5,34.679,7.578,36.731,9.472,38.535z"/>
<path d="M57.831,26.531C59.54,28.343,60.5,30.364,60.5,32.5c0,7.732-12.536,14-28,14
	c-10.795,0-20.158-3.057-24.831-7.531C12.151,43.715,21.807,47,33,47c15.464,0,28-6.268,28-14
	C61,30.666,59.851,28.467,57.831,26.531z"/>
<path d="M32.5,30.5c-2.209,0-4,0.896-4,2c0,0.429,0.275,0.823,0.734,1.149C29.093,33.444,29,33.229,29,33
	c0-1.104,1.791-2,4-2c1.352,0,2.542,0.338,3.266,0.851C35.725,31.067,34.252,30.5,32.5,30.5z"/>
<path d="M35,22.835c-4.783-1.381-10.899-0.562-13.661,1.83l0.835,0.241c2.895-2.187,8.723-2.9,13.326-1.571
	c1.582,0.457,2.811,1.1,3.66,1.838C38.336,24.224,36.929,23.392,35,22.835z"/>
<path d="M48.167,26.92l-9.998,8.659c0.273,0.079,0.551,0.148,0.832,0.213l9.667-8.372
	c1.583,0.457,2.812,1.1,3.661,1.839C51.505,28.31,50.098,27.478,48.167,26.92z"/>
<path d="M54.225,27.399c1.457,1.548,2.275,3.276,2.275,5.101c0,6.626-10.745,12-24,12
	c-9.208,0-17.2-2.595-21.225-6.399C15.11,42.177,23.394,45,33,45c13.255,0,24-5.374,24-12C57,30.977,55.994,29.071,54.225,27.399z
	"/>
<path d="M13.169,36.242c-1.218-1.404-1.147-3.065,0.5-4.492c2.604-2.255,8.189-3.11,12.829-2.043l0.332-0.287
	c-4.783-1.381-10.899-0.562-13.66,1.83C11.322,32.851,11.453,34.747,13.169,36.242z"/>
<path d="M26.34,40.327c-1.218-1.404-1.147-3.066,0.5-4.492l16.485,4.759c0.113-0.085,0.231-0.169,0.335-0.259
	l-17.32-5C24.493,36.935,24.624,38.832,26.34,40.327z"/>
</g>
<g class="icon-roller icon-col2" fill="#00FF00">
<path d="M32,18C16.536,18,4,24.268,4,32s12.536,14,28,14s28-6.268,28-14S47.464,18,32,18z M32,45
	C17.642,45,6,39.181,6,32s11.642-13,26-13s26,5.819,26,13S46.358,45,32,45z"/>
</g>
<g class="icon-roller icon-col1" fill="#FF0000">
<path d="M32,20C18.745,20,8,25.374,8,32s10.745,12,24,12s24-5.374,24-12S45.255,20,32,20z M34.5,22.335
	c4.782,1.381,6.42,4.438,3.66,6.83l-17.32-5C23.601,21.773,29.717,20.954,34.5,22.335z M36,32c0,1.104-1.791,2-4,2s-4-0.896-4-2
	s1.791-2,4-2S36,30.896,36,32z M12.67,30.75c2.761-2.392,8.877-3.211,13.66-1.83l-10,8.661
	C11.547,36.199,9.908,33.142,12.67,30.75z M29.5,41.665c-4.783-1.381-6.421-4.439-3.66-6.83l17.32,5
	C40.4,42.226,34.283,43.046,29.5,41.665z M51.329,33.249c-2.762,2.391-8.877,3.211-13.659,1.83l9.998-8.659
	C52.45,27.801,54.089,30.858,51.329,33.249z"/>
</g>
</svg>
