<svg xmlns="http://www.w3.org/2000/svg" viewBox="-5 -16 64 64">
<g id="color3" fill="#0000FF">
<polygon points="36.5,25 36.5,26.5 21,26.5 21,27 37,27 37,25 "/>
<polygon points="12.5,1 12.5,8.5 1,8.5 1,9 13,9 13,1 "/>
<path d="M6.5,2.5c-1.104,0-2,0.896-2,2c0,0.68,0.341,1.278,0.86,1.641C5.134,5.816,5,5.425,5,5c0-1.104,0.896-2,2-2
	c0.424,0,0.816,0.134,1.14,0.359C7.779,2.841,7.18,2.5,6.5,2.5z"/>
<path d="M20.5,2.5c-1.104,0-2,0.896-2,2c0,0.68,0.341,1.278,0.86,1.641C19.134,5.816,19,5.425,19,5
	c0-1.104,0.896-2,2-2c0.424,0,0.816,0.134,1.14,0.359C21.779,2.841,21.18,2.5,20.5,2.5z"/>
<polygon points="26.5,1 26.5,8.5 15,8.5 15,9 27,9 27,1 "/>
<path d="M34.5,2.5c-1.104,0-2,0.896-2,2c0,0.68,0.341,1.278,0.86,1.641C33.134,5.816,33,5.425,33,5
	c0-1.104,0.896-2,2-2c0.424,0,0.816,0.134,1.14,0.359C35.779,2.841,35.18,2.5,34.5,2.5z"/>
<polygon points="40.5,1 40.5,8.5 29,8.5 29,9 41,9 41,1 "/>
<path d="M48.5,2.5c-1.104,0-2,0.896-2,2c0,0.68,0.341,1.278,0.86,1.641C47.134,5.816,47,5.425,47,5
	c0-1.104,0.896-2,2-2c0.424,0,0.816,0.134,1.14,0.359C49.779,2.841,49.18,2.5,48.5,2.5z"/>
<polygon points="54.5,1 54.5,8.5 43,8.5 43,9 55,9 55,1 "/>
<path d="M41.5,14.5c-1.104,0-2,0.896-2,2c0,0.68,0.341,1.278,0.86,1.641C40.134,17.816,40,17.425,40,17
	c0-1.104,0.896-2,2-2c0.424,0,0.816,0.134,1.14,0.359C42.779,14.841,42.18,14.5,41.5,14.5z"/>
<polygon points="54.5,13 54.5,20.5 29,20.5 29,21 55,21 55,13 "/>
<path d="M13.5,14.5c-1.104,0-2,0.896-2,2c0,0.68,0.341,1.278,0.86,1.641C12.134,17.816,12,17.425,12,17
	c0-1.104,0.896-2,2-2c0.424,0,0.816,0.134,1.14,0.359C14.779,14.841,14.18,14.5,13.5,14.5z"/>
<polygon points="26.5,13 26.5,20.5 1,20.5 1,21 27,21 27,13 "/>
<path d="M4.5,26.5c-1.104,0-2,0.896-2,2c0,0.68,0.341,1.278,0.86,1.641C3.134,29.816,3,29.425,3,29
	c0-1.104,0.896-2,2-2c0.424,0,0.816,0.134,1.14,0.359C5.779,26.841,5.18,26.5,4.5,26.5z"/>
<polygon points="18.5,25 18.5,32.5 1,32.5 1,33 19,33 19,25 "/>
<path d="M50.5,26.5c-1.104,0-2,0.896-2,2c0,0.68,0.341,1.278,0.86,1.641C49.134,29.816,49,29.425,49,29
	c0-1.104,0.896-2,2-2c0.424,0,0.816,0.134,1.14,0.359C51.779,26.841,51.18,26.5,50.5,26.5z"/>
<polygon points="54.5,25 54.5,32.5 39,32.5 39,33 55,33 55,25 "/>
</g>
<g id="color2" fill="#00FF00">
</g>
<g id="color1" fill="#FF0000">
<rect x="20" y="24" width="16" height="2"/>
<path d="M0,0v8h12V0H0z M6,6C4.896,6,4,5.104,4,4s0.896-2,2-2s2,0.896,2,2S7.104,6,6,6z"/>
<path d="M14,0v8h12V0H14z M20,6c-1.104,0-2-0.896-2-2s0.896-2,2-2s2,0.896,2,2S21.104,6,20,6z"/>
<path d="M28,0v8h12V0H28z M34,6c-1.104,0-2-0.896-2-2s0.896-2,2-2s2,0.896,2,2S35.104,6,34,6z"/>
<path d="M42,0v8h12V0H42z M48,6c-1.104,0-2-0.896-2-2s0.896-2,2-2s2,0.896,2,2S49.104,6,48,6z"/>
<path d="M28,12v8h26v-8H28z M41,18c-1.104,0-2-0.896-2-2s0.896-2,2-2s2,0.896,2,2S42.104,18,41,18z"/>
<path d="M0,12v8h26v-8H0z M13,18c-1.104,0-2-0.896-2-2s0.896-2,2-2s2,0.896,2,2S14.104,18,13,18z"/>
<path d="M0,24v8h18v-8H0z M4,30c-1.104,0-2-0.896-2-2s0.896-2,2-2s2,0.896,2,2S5.104,30,4,30z"/>
<path d="M38,24v8h16v-8H38z M50,30c-1.104,0-2-0.896-2-2s0.896-2,2-2s2,0.896,2,2S51.104,30,50,30z"/>
</g>
</svg>
