<svg xmlns="http://www.w3.org/2000/svg" viewBox="-9.494 -9.494 64 64">
<g class="icon-sidestay icon-col3" fill="#0000FF">
<path d="M43.321,33.769c0,0.328-0.123,0.615-0.369,0.861c-0.28,0.28-0.615,0.42-1.005,0.42
	c-0.349,0-0.708-0.174-1.077-0.523c-0.8-0.758-1.699-1.138-2.697-1.138c-0.793,0-1.436,0.137-1.928,0.41
	c-0.567,0.314-0.851,0.776-0.851,1.384c0,0.541,0.256,0.992,0.769,1.354c0.002,0.002,0.006,0.004,0.009,0.005
	c-0.178-0.256-0.278-0.54-0.278-0.858c0-0.607,0.284-1.069,0.851-1.384c0.492-0.273,1.135-0.41,1.928-0.41
	c0.998,0,1.897,0.38,2.697,1.138c0.369,0.35,0.728,0.523,1.077,0.523c0.39,0,0.725-0.14,1.005-0.42
	c0.246-0.246,0.369-0.533,0.369-0.861c0-0.492-0.285-0.963-0.853-1.413C43.198,33.151,43.321,33.455,43.321,33.769z"/>
<path d="M43.417,39.921c0.563,0.699,0.847,1.525,0.847,2.48c0,1.505-0.602,2.681-1.805,3.527
	c-1.087,0.76-2.499,1.139-4.235,1.139c-1.641,0-3.086-0.396-4.337-1.189c-0.326-0.207-0.597-0.413-0.833-0.617
	c0.295,0.367,0.739,0.739,1.333,1.117c1.251,0.793,2.697,1.189,4.337,1.189c1.736,0,3.148-0.379,4.235-1.139
	c1.203-0.847,1.805-2.022,1.805-3.527C44.765,41.704,44.303,40.716,43.417,39.921z"/>
<path d="M33.815,38.194c0.196,0.251,0.419,0.483,0.696,0.678c0.752,0.526,1.914,1.035,3.486,1.527
	c1.483,0.466,2.437,0.831,2.861,1.098c0.049,0.031,0.083,0.068,0.128,0.102c-0.154-0.223-0.356-0.427-0.628-0.602
	c-0.424-0.267-1.377-0.632-2.861-1.098c-1.572-0.492-2.734-1.001-3.486-1.527C33.936,38.319,33.883,38.251,33.815,38.194z"/>
<path d="M42.52,4.234c-0.165-0.367-0.102-0.812,0.2-1.113c0.302-0.302,0.747-0.364,1.114-0.199
	c-0.048-0.108-0.111-0.212-0.2-0.301c-0.391-0.391-1.024-0.391-1.415,0c-0.39,0.391-0.391,1.023,0,1.414
	C42.308,4.124,42.412,4.187,42.52,4.234z"/>
<path d="M2.622,42.219c-0.391,0.391-0.391,1.023,0,1.414c0.089,0.089,0.192,0.151,0.301,0.2
	c-0.166-0.368-0.103-0.813,0.199-1.114c0.302-0.302,0.746-0.364,1.114-0.199c-0.048-0.108-0.111-0.212-0.2-0.301
	C3.645,41.828,3.012,41.828,2.622,42.219z"/>
<rect x="-5.209" y="24.438" transform="matrix(0.7071 -0.7071 0.7071 0.7071 -10.269 24.7915)" width="60" height="0.707"/>
</g>
<g class="icon-sidestay icon-col2" fill="#00FF00">
<path d="M42.237,38.743c-0.684-0.546-1.962-1.097-3.835-1.65c-1.442-0.431-2.355-0.782-2.738-1.057
	c-0.513-0.361-0.769-0.813-0.769-1.354c0-0.607,0.284-1.069,0.851-1.384c0.492-0.273,1.135-0.41,1.928-0.41
	c0.998,0,1.897,0.38,2.697,1.138c0.369,0.35,0.728,0.523,1.077,0.523c0.39,0,0.725-0.14,1.005-0.42
	c0.246-0.246,0.369-0.533,0.369-0.861c0-0.656-0.506-1.275-1.518-1.856c-1.066-0.608-2.273-0.913-3.62-0.913
	c-1.935,0-3.415,0.521-4.44,1.559c-0.772,0.779-1.159,1.713-1.159,2.8c0,1.34,0.475,2.345,1.425,3.015
	c0.752,0.526,1.914,1.035,3.486,1.527c1.483,0.466,2.437,0.831,2.861,1.098c0.629,0.403,0.943,0.937,0.943,1.6
	c0,0.649-0.301,1.152-0.902,1.508c-0.554,0.335-1.278,0.502-2.174,0.502c-1.34,0-2.526-0.506-3.558-1.518
	c-0.219-0.219-0.366-0.359-0.441-0.42c-0.246-0.186-0.516-0.277-0.81-0.277c-0.41,0-0.749,0.168-1.015,0.502
	c-0.191,0.233-0.287,0.496-0.287,0.79c0,0.711,0.591,1.442,1.774,2.194c1.251,0.793,2.697,1.189,4.337,1.189
	c1.736,0,3.148-0.379,4.235-1.139c1.203-0.847,1.805-2.022,1.805-3.527C43.765,40.617,43.255,39.563,42.237,38.743z"/>
</g>
<g class="icon-sidestay icon-col1" fill="#FF0000">
<path d="M42.427,0L26.87,7.07L7.071,26.87L0,42.426l2.828,2.829L45.255,2.828L42.427,0z M3.536,43.133
	c-0.391,0.391-1.023,0.392-1.414,0c-0.391-0.391-0.391-1.023,0-1.414s1.023-0.391,1.414,0C3.927,42.109,3.926,42.742,3.536,43.133z
	 M41.719,3.535c-0.391-0.391-0.39-1.023,0-1.414c0.391-0.391,1.023-0.391,1.415,0c0.391,0.391,0.391,1.023,0,1.414
	S42.11,3.926,41.719,3.535z"/>
</g>
</svg>
