<svg xmlns="http://www.w3.org/2000/svg" viewBox="-4 -6 64 64">
<g id="color3" fill="#0000FF">
<path d="M52.442,6.385C54.977,9.142,56.5,12.662,56.5,16.5v8c0,8.686-7.792,15.74-17.5,15.978V41
	c9.941,0,18-7.164,18-16v-8C57,12.921,55.269,9.211,52.442,6.385z"/>
<path d="M50.936,15.7c-2.933-3.17-7.412-5.2-12.436-5.2c-8.058,0-14.707,5.219-15.818,12H21V23h2.182
	c1.112-6.781,7.76-12,15.818-12C43.751,11,48.006,12.822,50.936,15.7z"/>
<path d="M3.808,34.875C3.29,34.284,3,33.655,3,33c0-3.314,7.164-6,16-6c6.586,0,12.238,1.493,14.692,3.625
	C31.592,28.23,25.589,26.5,18.5,26.5c-8.836,0-16,2.686-16,6C2.5,33.344,2.969,34.146,3.808,34.875z"/>
<path d="M35.218,29.547c0.818,0.914,1.282,1.909,1.282,2.953v14c0,4.419-8.059,8-18,8
	c-7.154,0-13.316-1.859-16.218-4.547C4.927,52.908,11.408,55,19,55c9.941,0,18-3.581,18-8V33C37,31.762,36.348,30.593,35.218,29.547
	z"/>
</g>
<g id="color2" fill="#00FF00">
<path d="M18,24c-9.941,0-18,3.581-18,8v14c0,4.419,8.059,8,18,8s18-3.581,18-8V32C36,27.581,27.941,24,18,24z M18,38
	c-8.836,0-16-2.686-16-6s7.164-6,16-6s16,2.686,16,6S26.836,38,18,38z"/>
</g>
<g id="color1" fill="#FF0000">
<path d="M38,0c-9.941,0-18,7.164-18,16v6h2.182c1.112-6.781,7.76-12,15.818-12c8.836,0,16,6.269,16,14
	s-7.164,14-16,14v2c9.941,0,18-7.164,18-16v-8C56,7.164,47.941,0,38,0z"/>
</g>
</svg>
