<svg xmlns="http://www.w3.org/2000/svg" viewBox="-6 -6 64 64">
<g class="icon-wheel icon-col3" fill="#0000FF">
<path d="M9.785,43.715C5.588,39.393,3,33.5,3,27C3,13.745,13.745,3,27,3c6.5,0,12.393,2.589,16.715,6.785
	C39.354,5.294,33.255,2.5,26.5,2.5c-13.255,0-24,10.745-24,24C2.5,33.255,5.294,39.354,9.785,43.715z"/>
<path d="M45.129,8.371C49.688,13.055,52.5,19.447,52.5,26.5c0,14.359-11.641,26-26,26
	c-7.053,0-13.445-2.813-18.129-7.371C13.095,49.981,19.693,53,27,53c14.359,0,26-11.641,26-26C53,19.693,49.981,13.095,45.129,8.371
	z"/>
<path d="M8.777,18.789l-0.572-0.33C7.12,20.922,6.5,23.636,6.5,26.5c0,2.93,0.645,5.704,1.777,8.211L6.754,35.59
	c0.089,0.211,0.176,0.424,0.272,0.632l1.75-1.011C7.645,32.704,7,29.93,7,27S7.645,21.296,8.777,18.789z"/>
<path d="M29,6.664v0.437c4.606,0.458,8.739,2.489,11.883,5.537C37.794,9.427,33.651,7.246,29,6.664z"/>
<path d="M42.36,11.269c0.764,0.795,1.472,1.645,2.11,2.547L42.8,14.779c0.141,0.182,0.283,0.361,0.417,0.548
	l1.752-1.012C44.195,13.22,43.317,12.203,42.36,11.269z"/>
<path d="M46.973,17.777l-0.228,0.132C47.868,20.55,48.5,23.45,48.5,26.5c0,3.294-0.729,6.417-2.026,9.222
	l-1.179-0.68c-0.025,0.056-0.046,0.114-0.072,0.17l1.751,1.01C48.271,33.417,49,30.294,49,27S48.271,20.583,46.973,17.777z"/>
<path d="M44.359,39.332C40.825,44.243,35.32,47.63,29,48.346v0.56c6.595-0.595,12.348-4.099,15.97-9.221
	L44.359,39.332z"/>
<path d="M24.5,5.154v1.446c-5.855,0.582-10.953,3.699-14.218,8.227l-1.142-0.659c-0.036,0.05-0.075,0.098-0.11,0.147
	l1.752,1.012C14.047,10.8,19.145,7.683,25,7.101V5.095C24.832,5.11,24.667,5.135,24.5,5.154z"/>
<path d="M24.5,46.836v1.569c-5.185-0.468-9.843-2.738-13.36-6.174c3.569,3.716,8.427,6.184,13.86,6.674v-2.006
	C24.832,46.883,24.667,46.856,24.5,46.836z"/>
<path d="M12.616,40.862c-0.66-0.687-1.275-1.415-1.833-2.189l-0.083,0.048
	C11.287,39.479,11.928,40.195,12.616,40.862z"/>
<path d="M11.5,20.129c0.164,0.239,0.376,0.449,0.643,0.604l6.614,3.819c0.016-0.062,0.022-0.127,0.04-0.188
	l-7.154-4.131C11.591,20.202,11.549,20.163,11.5,20.129z"/>
<path d="M22.52,30.98C21.577,29.921,21,28.529,21,27c0-3.313,2.687-6,6-6c1.529,0,2.921,0.577,3.98,1.52
	c-1.099-1.236-2.696-2.02-4.48-2.02c-3.313,0-6,2.687-6,6C20.5,28.284,21.283,29.882,22.52,30.98z"/>
<path d="M42.088,17.5c0.553,0.957,0.225,2.18-0.731,2.732l-7.154,4.131c0.188,0.682,0.297,1.396,0.297,2.137
	c0,0.742-0.109,1.457-0.298,2.139l0.54,0.312C34.9,28.324,35,27.676,35,27c0-0.741-0.109-1.455-0.297-2.137l7.154-4.131
	c0.956-0.553,1.284-1.775,0.731-2.732c-0.154-0.268-0.364-0.479-0.603-0.644C42.019,17.405,42.059,17.448,42.088,17.5z"/>
<path d="M28.5,10.5v8.263c0.171,0.044,0.333,0.111,0.5,0.166V11c0-0.68-0.341-1.278-0.86-1.641
	C28.366,9.684,28.5,10.075,28.5,10.5z"/>
<path d="M42,33.372c0.421,0.615,0.486,1.439,0.088,2.128c-0.552,0.957-1.775,1.284-2.732,0.732l-7.151-4.129
	c-1.002,1.021-2.277,1.766-3.705,2.134V42.5c0,1.104-0.896,2-2,2c-0.424,0-0.816-0.134-1.14-0.359C25.721,44.659,26.32,45,27,45
	c1.104,0,2-0.896,2-2v-8.263c1.428-0.368,2.703-1.113,3.705-2.134l7.151,4.129c0.957,0.552,2.18,0.225,2.732-0.732
	C43.11,35.096,42.839,33.96,42,33.372z"/>
<path d="M24.5,34.237c-1.428-0.368-2.703-1.113-3.705-2.134l-7.151,4.129c-0.689,0.397-1.514,0.333-2.129-0.089
	c0.589,0.839,1.724,1.11,2.629,0.589l7.151-4.129c0.882,0.897,1.982,1.565,3.205,1.968V34.237z"/>
<path d="M28.848,24.652C29.25,25.163,29.5,25.799,29.5,26.5c0,1.657-1.343,3-3,3c-0.701,0-1.337-0.25-1.848-0.652
	C25.202,29.544,26.044,30,27,30c1.657,0,3-1.343,3-3C30,26.044,29.544,25.202,28.848,24.652z"/>
</g>
<g class="icon-wheel icon-col2" fill="#00FF00">
<path d="M26,0C11.641,0,0,11.641,0,26s11.641,26,26,26s26-11.641,26-26S40.359,0,26,0z M26,50
	C12.745,50,2,39.255,2,26S12.745,2,26,2s24,10.745,24,24S39.255,50,26,50z"/>
<path d="M6.026,16.778C4.729,19.584,4,22.706,4,26s0.729,6.416,2.026,9.222l1.75-1.011C6.645,31.704,6,28.93,6,26
	s0.645-5.704,1.777-8.211L6.026,16.778z"/>
<path d="M28,4.095v2.006c5.855,0.582,10.952,3.699,14.217,8.227l1.752-1.012C40.348,8.193,34.595,4.689,28,4.095z"/>
<path d="M45.973,16.777l-1.75,1.011C45.354,20.296,46,23.07,46,26s-0.645,5.704-1.777,8.212l1.751,1.01
	C47.271,32.417,48,29.294,48,26S47.271,19.583,45.973,16.777z"/>
<path d="M28,45.899v2.006c6.595-0.595,12.348-4.099,15.97-9.221l-1.752-1.012C38.953,42.2,33.855,45.317,28,45.899z"
	/>
<path d="M24,6.101V4.095c-6.596,0.595-12.348,4.1-15.97,9.221l1.752,1.012C13.047,9.8,18.145,6.683,24,6.101z"/>
<path d="M9.782,37.673L8.03,38.685c3.622,5.121,9.374,8.626,15.97,9.221v-2.006
	C18.145,45.317,13.047,42.2,9.782,37.673z"/>
</g>
<g class="icon-wheel icon-col1" fill="#FF0000">
<path d="M28,33.737c1.428-0.368,2.703-1.113,3.705-2.134l7.151,4.129c0.957,0.552,2.18,0.225,2.732-0.732
	c0.552-0.956,0.225-2.18-0.732-2.731l-7.154-4.13C33.891,27.457,34,26.742,34,26c0-0.741-0.109-1.455-0.297-2.137l7.154-4.131
	c0.956-0.553,1.284-1.775,0.731-2.732c-0.552-0.956-1.775-1.284-2.731-0.731l-7.151,4.129c-1.002-1.021-2.277-1.767-3.706-2.135V10
	c0-1.104-0.896-2-2-2s-2,0.896-2,2v8.263c-1.428,0.368-2.703,1.113-3.705,2.134l-7.151-4.128c-0.957-0.553-2.18-0.225-2.732,0.731
	c-0.552,0.957-0.225,2.18,0.732,2.732l7.154,4.131C18.109,24.544,18,25.259,18,26c0,0.742,0.109,1.457,0.298,2.139l-7.154,4.13
	C10.187,32.82,9.86,34.044,10.412,35c0.553,0.957,1.775,1.284,2.732,0.732l7.151-4.129c1.002,1.021,2.277,1.766,3.705,2.134V42
	c0,1.104,0.896,2,2,2s2-0.896,2-2V33.737z M26,32c-3.313,0-6-2.687-6-6s2.687-6,6-6s6,2.687,6,6S29.313,32,26,32z"/>
<circle cx="26" cy="26" r="3"/>
</g>
</svg>
